<?xml version="1.0" encoding="UTF-8"?>
<svg version="1.1" xmlns="http://www.w3.org/2000/svg" width="3000" height="2000">
<path d="M0 0 C3.49747716 5.47333652 4.58500727 10.13226024 4.51898193 16.55480957 C4.52648319 17.37835544 4.53398444 18.20190131 4.541713 19.05040312 C4.56189417 21.78972277 4.5539065 24.52820711 4.54589844 27.26757812 C4.55463866 29.23918471 4.56512601 31.21078421 4.57722473 33.18237305 C4.60505018 38.52062865 4.60849017 43.8586524 4.60750484 49.19696999 C4.61063689 54.78106485 4.63626123 60.36505574 4.65948486 65.94909668 C4.70002591 76.51695353 4.72038116 87.08474871 4.73345876 97.65267134 C4.74933518 109.68654053 4.78775357 121.72030486 4.82805204 133.7541132 C4.91042511 158.50270693 4.96453346 183.25129774 5 208 C6.58644601 206.10068312 8.17229466 204.20087272 9.7578125 202.30078125 C10.20229736 201.76876099 10.64678223 201.23674072 11.10473633 200.68859863 C15.14180894 195.84893077 19.07755073 190.93288343 23 186 C23.92528888 184.84465758 24.85110616 183.68973823 25.77734375 182.53515625 C30.77950415 176.29815632 35.75990857 170.04612546 40.6875 163.75 C44.58679336 158.77173919 48.54588807 153.84933076 52.5625 148.96484375 C60.17938311 139.70007728 67.73236207 130.38960357 75.11669922 120.93823242 C78.58149519 116.51071181 82.13277171 112.16003293 85.70703125 107.8203125 C88.24163253 104.7027961 90.716982 101.5433013 93.1875 98.375 C97.45519569 92.90615693 101.82770251 87.53196333 106.25 82.1875 C110.29521631 77.29856561 114.30568413 72.39891816 118.16796875 67.36328125 C122.24739952 62.10090254 126.44314112 56.92898967 130.60888672 51.73486328 C132.40781137 49.49141671 134.20407271 47.24584645 136 45 C138.25451674 42.18068714 140.51081217 39.36282123 142.76953125 36.546875 C143.78397061 35.28134333 144.7982903 34.01571573 145.8125 32.75 C146.32482178 32.11078613 146.83714355 31.47157227 147.36499023 30.81298828 C150.33571535 27.1001642 153.28118883 23.3693753 156.20263672 19.61767578 C158.00058895 17.31358547 159.81133195 15.0198796 161.62792969 12.73046875 C162.56135564 11.55322264 163.49157882 10.37343154 164.41894531 9.19140625 C165.82668715 7.40653929 167.25414012 5.63932797 168.6875 3.875 C169.10265869 3.34245605 169.51781738 2.80991211 169.94555664 2.26123047 C173.79466447 -2.4026739 178.3825109 -5.44356127 184.40330887 -6.36967468 C187.12418506 -6.51763327 189.81864484 -6.54072905 192.54345703 -6.51757812 C193.56886597 -6.5245874 194.5942749 -6.53159668 195.65075684 -6.53881836 C199.02005567 -6.5563384 202.38850602 -6.54479811 205.7578125 -6.53125 C208.10855266 -6.53394621 210.45929173 -6.5378297 212.81002808 -6.54284668 C217.72746438 -6.54873328 222.64460936 -6.54020389 227.56201172 -6.52148438 C233.86146225 -6.49867061 240.16023197 -6.51183921 246.45965767 -6.53577423 C251.31014124 -6.55023315 256.16046355 -6.54562612 261.010952 -6.53526306 C263.33376013 -6.53259736 265.65658297 -6.53585998 267.97937393 -6.54518127 C271.22508771 -6.55535075 274.4697002 -6.53984003 277.71533203 -6.51757812 C279.15088943 -6.52972351 279.15088943 -6.52972351 280.615448 -6.54211426 C287.36023096 -6.45649922 290.75566847 -5.15185653 295.64453125 -0.40234375 C299.53622932 4.47854848 300.49688748 8.13782221 300.390625 14.265625 C299.12398224 23.13212433 291.5778244 30.06732648 285.91796875 36.58984375 C283.04445187 39.91541738 280.3209689 43.34232429 277.625 46.8125 C273.58058744 52.00828435 269.47233834 57.14610613 265.3125 62.25 C264.75723633 62.93151123 264.20197266 63.61302246 263.62988281 64.31518555 C262.56301712 65.62453521 261.49612382 66.93386239 260.42919922 68.24316406 C256.4152761 73.17725883 252.44711524 78.14707195 248.52734375 83.15625 C243.03412511 90.17592062 237.47289963 97.13172511 231.8371582 104.03759766 C227.88891601 108.88393785 224.01240242 113.78119998 220.16625977 118.70874023 C216.64624854 123.20663846 213.05143112 127.63985702 209.4375 132.0625 C205.55018227 136.82173946 201.72660109 141.61374347 198 146.5 C192.63204536 153.53779069 187.03528396 160.38123427 181.43652344 167.23583984 C179.6098721 169.47910676 177.8025351 171.73732408 176 174 C173.67629358 176.91688886 171.33566991 179.8187579 168.9765625 182.70703125 C163.06629158 189.94466798 157.25667165 197.22990703 151.58984375 204.66015625 C148.12044118 209.16997318 144.50480409 213.56109438 140.90429688 217.96630859 C136.76962203 223.03189691 132.70606208 228.14851443 128.68969727 233.30834961 C125.86194082 236.93442762 122.95885891 240.48107137 120 244 C121.31772317 246.80596158 122.79272252 249.2017865 124.6875 251.65234375 C125.21577393 252.3390918 125.74404785 253.02583984 126.28833008 253.73339844 C126.85318115 254.46075195 127.41803223 255.18810547 128 255.9375 C128.8811145 257.0807373 128.8811145 257.0807373 129.7800293 258.24707031 C131.51718962 260.50024927 133.25836435 262.75027971 135 265 C136.60586826 267.0820303 138.20920292 269.16598693 139.8125 271.25 C141.00552734 272.79880859 141.00552734 272.79880859 142.22265625 274.37890625 C145.05685381 278.06727451 147.87082565 281.77094917 150.6862793 285.47363281 C156.41929379 293.01275373 162.17183481 300.53412708 168 308 C174.50284447 316.3301363 180.90817999 324.73260008 187.3046875 333.14453125 C191.84537584 339.11529404 196.41965724 345.05962373 201 351 C203.08616009 353.71050968 205.1711677 356.42190574 207.25585938 359.13354492 C209.31090046 361.80614028 211.36837876 364.47676029 213.4296875 367.14453125 C217.98193683 373.03937946 222.48218349 378.96898976 226.9375 384.9375 C231.14271907 390.56722949 235.42351013 396.12707288 239.78271484 401.63818359 C245.09987155 408.36970018 250.28749978 415.19972236 255.48925781 422.02050781 C260.39772304 428.45196161 265.33018484 434.86471075 270.30859375 441.2421875 C276.50759537 449.18476554 282.65060925 457.15894944 288.66918945 465.23925781 C291.90145794 469.56764004 295.20539963 473.83041388 298.5625 478.0625 C302.50321547 483.04126459 306.35151539 488.08067222 310.125 493.1875 C310.83571655 494.14184937 310.83571655 494.14184937 311.56079102 495.11547852 C315.67599928 500.7262971 316.95119385 505.13627168 316 512 C313.7432623 518.09902818 310.74721061 522.00145533 305 525 C302.12754406 525.95748531 300.31100546 526.13189826 297.32722473 526.14717102 C295.88693909 526.15790398 295.88693909 526.15790398 294.41755676 526.16885376 C292.83958565 526.17288712 292.83958565 526.17288712 291.22973633 526.17700195 C289.5658638 526.18685875 289.5658638 526.18685875 287.86837769 526.19691467 C284.18959488 526.21665954 280.51085293 526.2283134 276.83203125 526.23828125 C275.57602301 526.24235678 274.32001476 526.2464323 273.02594566 526.25063133 C267.06294553 526.26934578 261.09995838 526.2839097 255.13693601 526.2922433 C248.26582892 526.30200571 241.39504483 526.32830022 234.52405149 526.36874419 C228.56375212 526.40261679 222.60353128 526.41439446 216.64313316 526.41844749 C214.11262511 526.42331699 211.58212059 526.43494119 209.0516758 526.45348549 C205.50660185 526.47784909 201.96236849 526.47691631 198.41723633 526.4699707 C197.37537674 526.48278076 196.33351715 526.49559082 195.26008606 526.50878906 C189.00104231 526.4641805 184.20437835 525.63264222 179 522 C176.48828125 519.3984375 176.48828125 519.3984375 174.3125 516.375 C173.90370605 515.81723877 173.49491211 515.25947754 173.07373047 514.68481445 C171.69934766 512.80123995 170.34988145 510.90119558 169 509 C167.96623982 507.56800155 166.93103027 506.13704854 165.89453125 504.70703125 C164.2448645 502.42867143 162.59729683 500.14894007 160.95605469 497.86450195 C157.38006323 492.88768743 153.75115688 487.95631899 150.0625 483.0625 C141.03222606 471.0774618 132.13856049 458.99390169 123.375 446.8125 C118.85036373 440.52442622 114.25413662 434.29717936 109.59155273 428.11083984 C101.01323052 416.72274111 92.60944616 405.20380737 84.18334961 393.70288086 C80.46456728 388.62861016 76.73323047 383.56364738 73 378.5 C68.38546681 372.24097874 63.77919685 365.97605505 59.18359375 359.703125 C55.46462642 354.62884888 51.73329806 349.56373905 48 344.5 C43.38546681 338.24097874 38.77919685 331.97605505 34.18359375 325.703125 C29.92850692 319.89735055 25.6580238 314.10295609 21.38476562 308.31054688 C17.67024457 303.27353206 13.96609272 298.22898309 10.265625 293.18164062 C9.75789551 292.4891925 9.25016602 291.79674438 8.72705078 291.08331299 C7.48465706 289.38890719 6.2423225 287.69445801 5 286 C4.99761165 287.15829095 4.99522329 288.3165819 4.99276257 289.50997257 C4.93538972 317.01194946 4.86264994 344.51385081 4.77101372 372.01573578 C4.7597457 375.40152205 4.74860722 378.78730874 4.73754883 382.1730957 C4.73534514 382.84713847 4.73314146 383.52118123 4.730871 384.21564954 C4.69550875 395.12640525 4.67063857 406.03716089 4.64965298 416.94795264 C4.62788237 428.14532174 4.59459779 439.34262399 4.55129844 450.53993267 C4.52734549 456.82850468 4.50863024 463.11699444 4.50238609 469.40561104 C4.49634471 475.32434348 4.47637874 481.24286543 4.44572449 487.16152 C4.43692915 489.33390467 4.43322477 491.50631682 4.43499184 493.67871857 C4.43664316 496.64551748 4.41995681 499.61167364 4.39872742 502.5783844 C4.40357499 503.43734882 4.40842257 504.29631325 4.41341704 505.1813069 C4.34198233 511.23345647 3.4171702 516.17614951 -0.6484375 520.92578125 C-1.50308594 521.61220703 -1.50308594 521.61220703 -2.375 522.3125 C-2.93960937 522.78300781 -3.50421875 523.25351562 -4.0859375 523.73828125 C-9.39200986 527.23595752 -14.18325575 527.29689922 -20.3449707 527.29052734 C-21.74593491 527.30060318 -21.74593491 527.30060318 -23.17520142 527.31088257 C-26.25878235 527.32985972 -29.34214557 527.33378673 -32.42578125 527.3359375 C-34.57423491 527.34236595 -36.7226877 527.34909435 -38.87113953 527.35610962 C-43.37431873 527.36808192 -47.87742123 527.37179052 -52.38061523 527.37060547 C-58.14072083 527.37040236 -63.9003326 527.39769654 -69.66032124 527.43214989 C-74.09824364 527.45442791 -78.53604741 527.45844271 -82.97402 527.45738602 C-85.09702442 527.45974091 -87.22003215 527.46855812 -89.34298134 527.48405075 C-92.3179507 527.50372718 -95.2918579 527.49786573 -98.2668457 527.48583984 C-99.13724991 527.49707886 -100.00765411 527.50831787 -100.9044342 527.51989746 C-107.66852584 527.45069301 -112.90281359 525.67991841 -118.05859375 521.21875 C-118.51363281 520.6515625 -118.96867187 520.084375 -119.4375 519.5 C-119.91058594 518.9328125 -120.38367187 518.365625 -120.87109375 517.78125 C-123.59273918 513.48688905 -123.14238277 508.59154899 -123.13142776 503.67461777 C-123.1334804 502.8231472 -123.13553303 501.97167663 -123.13764787 501.09440392 C-123.14333275 498.22191818 -123.14185878 495.34948015 -123.14044189 492.47698975 C-123.14302467 490.40446392 -123.14603759 488.33193859 -123.1494453 486.25941396 C-123.15752874 480.54890215 -123.15930561 474.83840291 -123.16004276 469.12788606 C-123.16189097 462.97504987 -123.16943711 456.82222023 -123.17617798 450.66938782 C-123.19048015 436.50667314 -123.19628897 422.3439626 -123.20086992 408.18124243 C-123.20320543 401.18360701 -123.20680802 394.18597242 -123.2105653 387.18833764 C-123.22340079 363.23782721 -123.23412023 339.28731723 -123.2375679 315.33680344 C-123.23778953 313.83321204 -123.23801132 312.32962065 -123.23823325 310.82602926 C-123.23845389 309.31879414 -123.23867438 307.81155903 -123.2388947 306.30432391 C-123.23933726 303.28051933 -123.23978437 300.25671474 -123.24023438 297.23291016 C-123.24034377 296.4831819 -123.24045316 295.73345364 -123.24056586 294.96100635 C-123.24419706 270.64723289 -123.26011947 246.33348925 -123.28342474 222.01972721 C-123.30801569 196.31768419 -123.32174039 170.6156582 -123.32293582 144.91360307 C-123.32310728 142.09267314 -123.3233227 139.27174322 -123.32357025 136.45081329 C-123.32362602 135.75621399 -123.32368179 135.06161468 -123.32373925 134.34596691 C-123.3248903 123.16372017 -123.33591687 111.98150399 -123.35045731 100.79926757 C-123.36481714 89.56168664 -123.36780949 78.32414438 -123.36001733 67.08655325 C-123.35610317 60.99754466 -123.35707779 54.90863902 -123.37107468 48.81964302 C-123.38376751 43.24708343 -123.38265674 37.67470464 -123.37048396 32.10214546 C-123.36851895 30.08463769 -123.3716423 28.06711731 -123.38032833 26.04962727 C-123.39138156 23.30911362 -123.38396007 20.56924245 -123.3719368 17.8287468 C-123.37953199 17.04392054 -123.38712718 16.25909428 -123.39495254 15.45048541 C-123.33756015 9.3983594 -122.27626322 3.72634254 -118.28125 -1.05859375 C-117.6934375 -1.51363281 -117.105625 -1.96867187 -116.5 -2.4375 C-115.9121875 -2.91058594 -115.324375 -3.38367188 -114.71875 -3.87109375 C-110.48834241 -6.64970237 -105.85290746 -6.19459599 -100.98974609 -6.25292969 C-100.06742188 -6.26764816 -99.14509766 -6.28236664 -98.19482422 -6.29753113 C-95.13774692 -6.34450232 -92.08063843 -6.38384639 -89.0234375 -6.421875 C-87.97829609 -6.43573494 -86.93315468 -6.44959488 -85.85634232 -6.46387482 C-80.3217634 -6.53715578 -74.787149 -6.60469571 -69.25244141 -6.66748047 C-63.54613188 -6.73326948 -57.84026865 -6.81790514 -52.13428307 -6.9070549 C-47.73847569 -6.97234542 -43.34258289 -7.02372896 -38.94655228 -7.07138824 C-36.84386035 -7.0965605 -34.74122333 -7.12688763 -32.63868332 -7.16255951 C-29.68795698 -7.21128185 -26.73763568 -7.24026055 -23.78662109 -7.26464844 C-22.92602081 -7.28321396 -22.06542053 -7.30177948 -21.17874146 -7.32090759 C-13.4072435 -7.34800988 -5.52830239 -5.84420538 0 0 Z " fill="#FFFFFF" transform="translate(1714,466)"/>
<path d="M0 0 C1.13437651 -0.00445784 2.26875303 -0.00891569 3.43750459 -0.01350862 C5.31509502 -0.01323207 5.31509502 -0.01323207 7.23061657 -0.01294994 C8.56949078 -0.01624882 9.908364 -0.01997444 11.24723595 -0.02409142 C14.93438722 -0.03411656 18.62152221 -0.03782903 22.30868518 -0.04048073 C26.28220651 -0.04438219 30.25571493 -0.05396054 34.22922802 -0.0626936 C43.82838215 -0.08246108 53.42753733 -0.09252395 63.02670673 -0.10142139 C67.54517977 -0.10580326 72.06365164 -0.11117028 76.58212376 -0.11641026 C91.59864878 -0.13342177 106.61517306 -0.14791699 121.63170624 -0.155159 C125.52903081 -0.15706894 129.42635538 -0.15898927 133.32367992 -0.16094494 C134.29235936 -0.16142868 135.26103879 -0.16191242 136.25907215 -0.16241082 C151.95882398 -0.17071508 167.65849971 -0.19605901 183.35821829 -0.22852562 C199.47006058 -0.26157342 215.58186417 -0.27960564 231.69374055 -0.28280324 C240.74274552 -0.2849703 249.79163948 -0.29374774 258.84061146 -0.31926441 C266.54533942 -0.34094019 274.24992942 -0.34903722 281.95468441 -0.33929763 C285.88659883 -0.334744 289.81822837 -0.33670049 293.75010395 -0.35605907 C297.34953384 -0.37362807 300.94846972 -0.37274463 304.54790439 -0.35716178 C306.46702744 -0.35364583 308.38615529 -0.36985865 310.30520707 -0.38676625 C316.67255761 -0.33893088 320.78045533 -0.25159505 325.57197094 4.13422108 C329.25914542 8.48203016 329.0047565 12.80021378 328.97602367 18.23553944 C328.98631855 19.59743145 328.98631855 19.59743145 328.9968214 20.98683643 C329.01509585 23.98273912 329.01125092 26.97811845 329.00556469 29.97406483 C329.0101262 32.06004984 329.01543169 34.14603334 329.02144909 36.23201466 C329.03038149 40.60239234 329.02795556 44.9725873 329.01801586 49.34296131 C329.00652665 54.93963195 329.02673658 60.53567162 329.055933 66.13225937 C329.07429169 70.43972744 329.07400316 74.74704421 329.06829548 79.05454159 C329.06814222 81.11778683 329.0741902 83.18104229 329.08658695 85.2442503 C329.10148847 88.13107057 329.09082578 91.01672407 329.07367992 93.90350819 C329.08334789 94.75305073 329.09301586 95.60259327 329.1029768 96.47787952 C329.03669918 101.81528125 328.27798938 105.01705737 324.57197094 109.13422108 C319.09522087 112.91895694 315.21893862 113.71000664 308.64388561 113.61523914 C307.76810799 113.61865684 306.89233036 113.62207454 305.99001402 113.62559581 C303.06785814 113.63216221 300.14662948 113.61021914 297.22455883 113.58832264 C295.12503106 113.58719389 293.0255017 113.58782855 290.92597485 113.59009266 C285.23428345 113.59123967 279.54292967 113.56773211 273.85131669 113.53979683 C267.90026295 113.51478123 261.94920135 113.51244104 255.99810314 113.5076952 C244.73244247 113.49526593 233.46693718 113.46244483 222.20134491 113.42229724 C206.97563363 113.36921538 191.74987983 113.34763368 176.52409935 113.32428837 C152.53994017 113.28668353 128.55610889 113.20699217 104.57197094 113.13422108 C104.57197094 143.82422108 104.57197094 174.51422108 104.57197094 206.13422108 C117.340135 206.0646117 130.10829906 205.99500233 143.26337719 205.92328358 C151.34346257 205.89263301 159.42350591 205.86350167 167.50361156 205.84125233 C180.3339173 205.80563935 193.16398676 205.76375551 205.99409008 205.68158436 C215.33789034 205.62176998 224.68149906 205.58306894 234.02548546 205.56969011 C238.97289359 205.56186981 243.9197538 205.54349885 248.86698627 205.49984074 C253.52511469 205.45906755 258.18247031 205.44656152 262.84076023 205.45557499 C264.54878599 205.45392645 266.25683801 205.44201915 267.96470928 205.41898823 C282.47657936 205.23291825 282.47657936 205.23291825 287.01787853 208.9267931 C291.56529196 213.78692905 291.86949602 218.47670264 291.86249828 224.92255116 C291.86921551 225.8092197 291.87593273 226.69588825 291.88285351 227.60942554 C291.90185241 230.54092481 291.90575882 233.47219532 291.90790844 236.40375233 C291.9143356 238.44392968 291.9210639 240.4841061 291.92808056 242.5242815 C291.94005845 246.80224208 291.94376091 251.08012187 291.94257641 255.35809803 C291.94237332 260.83248584 291.96966309 266.30635395 292.00412083 271.78061867 C292.02639027 275.99546645 292.03041391 280.21018925 292.02935696 284.42508984 C292.03171332 286.44286037 292.04053881 288.46063432 292.05602169 290.47834682 C292.07568008 293.30516716 292.06984389 296.13086795 292.05781078 298.95770741 C292.0690498 299.78652424 292.08028881 300.61534107 292.0918684 301.46927357 C292.03061321 307.14971793 290.83793113 310.4583062 287.57197094 315.13422108 C282.38335086 319.02568614 277.84524573 319.25905773 271.48523998 319.25447559 C270.77128417 319.25533002 270.05732836 319.25618444 269.32173753 319.25706476 C266.9295372 319.25871181 264.537407 319.25321087 262.14521313 319.24774647 C260.43035922 319.2474644 258.71550519 319.24762271 257.00065136 319.24818897 C252.34400139 319.24847619 247.68737711 319.24259158 243.03073311 319.23561502 C238.16469929 319.22936899 233.29866489 319.22877669 228.43262768 319.22758961 C219.21752051 319.22447998 210.00242519 319.21627155 200.78732324 319.20624012 C188.33535653 319.19297896 175.88338659 319.18757609 163.4314146 319.1817379 C143.81159117 319.17233143 124.19179274 319.15241003 104.57197094 319.13422108 C104.57197094 352.46422108 104.57197094 385.79422108 104.57197094 420.13422108 C120.02267406 420.08781483 135.47337719 420.04140858 151.39228344 419.99359608 C161.16311943 419.9731652 170.93394 419.9537446 180.70478344 419.93890858 C196.2237173 419.91515576 211.74256443 419.88720242 227.26142406 419.83246326 C238.5627349 419.7926195 249.86397549 419.76679393 261.16535461 419.7578671 C267.15048057 419.75264823 273.13540557 419.7403655 279.12046719 419.71130085 C284.75272456 419.68417083 290.384698 419.6757713 296.0170145 419.68179035 C298.08503353 419.68068905 300.15306195 419.67272097 302.22102451 419.65739918 C305.04376999 419.63750928 307.86544229 419.64227844 310.68821239 419.65320301 C311.50728923 419.64155164 312.32636606 419.62990028 313.17026341 419.61789584 C318.43242468 419.67297558 321.3766633 420.68332345 325.57197094 424.13422108 C329.27016515 428.49020797 329.01638372 432.86184263 329.00776196 438.31146717 C329.01783779 439.22754246 329.02791363 440.14361774 329.03829479 441.08745289 C329.06675434 444.11097946 329.07265031 447.13400646 329.07587719 450.15765858 C329.08551952 452.26366855 329.09561209 454.3696765 329.10613537 456.47568226 C329.12409162 460.88892748 329.12965689 465.3019966 329.12787914 469.71527576 C329.12757429 475.3636426 329.16853373 481.01087789 329.22019577 486.65897655 C329.25359176 491.00853099 329.25963573 495.35781282 329.25804996 499.70748234 C329.26158481 501.78946935 329.27482506 503.87146381 329.29804707 505.95332432 C329.32752661 508.86907882 329.31878848 511.78238997 329.30073071 514.69818592 C329.31758923 515.55348392 329.33444775 516.40878193 329.35181713 517.28999805 C329.26608517 522.75231452 328.02547054 525.6945776 324.34713173 529.73939419 C320.51582342 532.74983239 316.74315178 533.38454342 311.96590233 533.39148998 C310.8427107 533.39793887 309.71951907 533.40438777 308.56229132 533.41103208 C307.33331809 533.40793488 306.10434485 533.40483767 304.83813 533.40164661 C303.52868209 533.40617773 302.21923419 533.41070884 300.87010604 533.41537726 C297.23691715 533.42761377 293.6038203 533.42734604 289.97061551 533.42498851 C286.05161724 533.4245805 282.13264855 533.43561792 278.21366405 533.44510365 C270.53608224 533.46171823 262.85853113 533.4672134 255.18093284 533.4683284 C248.94017368 533.46927867 242.69942466 533.47338789 236.45866871 533.47972965 C218.76538299 533.49734339 201.07212154 533.50656833 183.378827 533.5050687 C181.94798183 533.50494884 181.94798183 533.50494884 180.48823071 533.50482655 C179.53316935 533.50474478 178.578108 533.50466302 177.5941054 533.50457878 C162.11568838 533.50376587 146.63736867 533.52290457 131.1589798 533.55110328 C115.26628153 533.57982833 99.37363072 533.59364378 83.48090583 533.59191573 C74.55818753 533.59125169 65.63557124 533.59674999 56.71287632 533.61827183 C49.11584325 533.63647866 41.51895843 533.6408351 33.92191299 533.62725298 C30.04644841 533.62072074 26.17126828 533.6206151 22.29583073 533.63795948 C18.09259258 533.65657729 13.89001365 533.64414246 9.68676281 533.6286974 C8.46448174 533.63898452 7.24220066 533.64927165 5.98288077 533.65987051 C-0.96071084 533.60340412 -5.52817391 532.88348885 -11.42802906 529.13422108 C-15.74490975 524.53883195 -15.57254323 519.78907183 -15.55945683 513.7829504 C-15.56150946 512.91653952 -15.56356209 512.05012865 -15.56567693 511.15746289 C-15.57137173 508.2281623 -15.56988663 505.29890835 -15.56847095 502.36960316 C-15.57105316 500.25867911 -15.57406592 498.14775556 -15.57747436 496.03683269 C-15.58556443 490.21565558 -15.58733504 484.39449078 -15.58807182 478.57330871 C-15.58991887 472.30326521 -15.59746438 466.03322815 -15.60420704 459.76318836 C-15.6185139 445.32882447 -15.62431847 430.89446461 -15.62889898 416.46009513 C-15.63123374 409.33014319 -15.63483623 402.20019206 -15.63859436 395.07024075 C-15.65142995 370.67261363 -15.66214972 346.27498696 -15.66559696 321.87735653 C-15.6658186 320.34548402 -15.66604038 318.8136115 -15.66626231 317.28173899 C-15.66648296 315.74613114 -15.66670344 314.21052328 -15.66692376 312.67491543 C-15.66736632 309.59413059 -15.66781343 306.51334576 -15.66826344 303.43256092 C-15.66837283 302.66870392 -15.66848222 301.90484691 -15.66859492 301.11784272 C-15.67222699 276.33990086 -15.68815261 251.56198823 -15.7114538 226.78405757 C-15.73603375 200.5985453 -15.74976892 174.41304974 -15.75096488 148.22752559 C-15.75113634 145.3546768 -15.75135177 142.48182801 -15.75159931 139.60897923 C-15.75165508 138.9015828 -15.75171085 138.19418637 -15.75176831 137.46535368 C-15.75292028 126.06766832 -15.76395456 114.6700129 -15.77848637 103.27233766 C-15.79283203 91.82296242 -15.79584617 80.37363966 -15.78804639 68.92425527 C-15.78412717 62.71816062 -15.78513131 56.51216699 -15.79910374 50.30608463 C-15.81176647 44.63001946 -15.81071271 38.954132 -15.79851303 33.27806734 C-15.79654274 31.21953355 -15.79969526 29.16098751 -15.80835739 27.10247101 C-15.8193533 24.31381985 -15.81203096 21.52580663 -15.79996586 18.73717403 C-15.80756105 17.92974178 -15.81515625 17.12230952 -15.8229816 16.29040962 C-15.76690945 10.32610435 -14.31186376 7.25353512 -10.42802906 2.88422108 C-7.11836685 -0.01173336 -4.22305868 0.00768479 0 0 Z " fill="#FFFFFF" transform="translate(2086.4280290603638,459.86577892303467)"/>
<path d="M0 0 C0.88658295 0.00215515 1.77316589 0.0043103 2.68661499 0.00653076 C67.28492811 0.25672964 127.34216305 21.51473006 175.9375 64.3125 C176.89914062 65.12847656 177.86078125 65.94445312 178.8515625 66.78515625 C179.74617188 67.55730469 180.64078125 68.32945312 181.5625 69.125 C182.33851563 69.79144531 183.11453125 70.45789063 183.9140625 71.14453125 C187.21024449 74.67615481 188.79935622 78.02315801 189.3125 82.8125 C188.47642486 90.61586795 183.71178941 94.89663852 178.3125 100.0625 C176.9432426 101.3884909 175.57595316 102.71651794 174.2109375 104.046875 C173.60685059 104.62663086 173.00276367 105.20638672 172.38037109 105.80371094 C170.83553116 107.27063124 170.83553116 107.27063124 169.9375 109.3125 C169.2775 109.3125 168.6175 109.3125 167.9375 109.3125 C167.9375 109.9725 167.9375 110.6325 167.9375 111.3125 C167.2775 111.3125 166.6175 111.3125 165.9375 111.3125 C165.69668701 111.88000977 165.45587402 112.44751953 165.20776367 113.03222656 C163.68124592 115.77250636 161.85549033 117.60289291 159.61328125 119.796875 C158.31680664 121.07691406 158.31680664 121.07691406 156.99414062 122.3828125 C156.08857422 123.26710938 155.18300781 124.15140625 154.25 125.0625 C148.83514811 130.37102389 143.51871284 135.66708179 138.58422852 141.42773438 C135.77274973 144.64561669 132.76881605 147.66539189 129.75 150.6875 C129.14736328 151.30238281 128.54472656 151.91726563 127.92382812 152.55078125 C127.33666016 153.13988281 126.74949219 153.72898437 126.14453125 154.3359375 C125.6235083 154.86106934 125.10248535 155.38620117 124.56567383 155.92724609 C121.06698066 158.90394201 117.76942522 159.89152256 113.1328125 159.74609375 C106.72656639 158.48080315 101.64469126 153.08051706 96.8125 149 C67.43326873 124.74080073 26.84119544 114.63108788 -10.69384766 117.51464844 C-41.92103282 120.73019305 -71.40425073 132.90775153 -94.171875 154.6953125 C-96.0625 156.3125 -96.0625 156.3125 -98.0625 156.3125 C-98.0625 156.9725 -98.0625 157.6325 -98.0625 158.3125 C-98.7225 158.3125 -99.3825 158.3125 -100.0625 158.3125 C-100.3925 159.3025 -100.7225 160.2925 -101.0625 161.3125 C-101.7225 161.3125 -102.3825 161.3125 -103.0625 161.3125 C-103.29839844 161.86292969 -103.53429688 162.41335938 -103.77734375 162.98046875 C-105.38514344 165.89796546 -107.41854787 168.12849783 -109.625 170.625 C-137.7783029 203.55750772 -146.74059858 248.04665847 -143.86035156 290.27636719 C-139.72909729 331.13681037 -118.88581846 368.35329907 -87.44140625 394.3828125 C-57.88510922 417.677836 -18.15039865 428.64316616 19.17431641 424.46459961 C50.3915052 420.36492104 79.44071777 409.72295265 103.9375 389.67578125 C108.39353215 386.20445263 111.38738217 385.3125 116.9375 385.3125 C123.62533386 387.37964865 127.57819633 391.41142731 132.375 396.375 C133.47231445 397.47424805 133.47231445 397.47424805 134.59179688 398.59570312 C139.9375 404.03125 139.9375 404.03125 139.9375 406.3125 C140.5975 406.3125 141.2575 406.3125 141.9375 406.3125 C143.3828125 407.76147461 143.3828125 407.76147461 145.0625 409.77734375 C148.88839363 414.27554116 152.88266873 418.58324851 156.9375 422.875 C157.61039063 423.59107422 158.28328125 424.30714844 158.9765625 425.04492188 C162.17840852 428.44147475 165.40619698 431.80095182 168.71875 435.08984375 C171.06432459 437.41912963 173.30276015 439.78566508 175.4375 442.3125 C177.73402293 444.99694909 180.11302266 447.45737107 182.6875 449.875 C186.49052583 453.67802583 188.68169345 457.19166008 189.1328125 462.6953125 C188.97025042 468.60173464 187.37429037 471.98307422 183.25 476.140625 C182.486875 476.85734375 181.72375 477.5740625 180.9375 478.3125 C180.050625 479.19421875 179.16375 480.0759375 178.25 480.984375 C165.67534235 493.2494137 151.12996007 503.55188434 135.9375 512.3125 C134.72126391 513.03370198 133.50512232 513.75506334 132.2890625 514.4765625 C91.84890595 538.17208678 46.22434363 548.77431139 -0.375 548.6875 C-1.42676422 548.68728851 -2.47852844 548.68707703 -3.56216431 548.68685913 C-20.71212882 548.65254587 -37.21080251 547.72315985 -54.0625 544.3125 C-55.01995117 544.11994629 -55.97740234 543.92739258 -56.96386719 543.72900391 C-63.0565417 542.46154972 -69.06006989 540.95018516 -75.0625 539.3125 C-75.85817383 539.10431641 -76.65384766 538.89613281 -77.47363281 538.68164062 C-115.93354767 528.5483027 -150.47654231 508.46103926 -180.828125 483.15234375 C-183.03008846 481.29282238 -183.03008846 481.29282238 -185.359375 479.69140625 C-185.92140625 479.23636719 -186.4834375 478.78132813 -187.0625 478.3125 C-187.0625 477.6525 -187.0625 476.9925 -187.0625 476.3125 C-187.65635498 476.0438916 -188.25020996 475.7752832 -188.86206055 475.49853516 C-191.07237445 474.30717768 -192.50897183 473.11038102 -194.26953125 471.3359375 C-195.1502832 470.45228516 -195.1502832 470.45228516 -196.04882812 469.55078125 C-196.9527832 468.62845703 -196.9527832 468.62845703 -197.875 467.6875 C-198.76155273 466.79998047 -198.76155273 466.79998047 -199.66601562 465.89453125 C-241.74978535 423.39772562 -269.14561068 364.75659736 -275.0625 305.3125 C-275.17335938 304.260625 -275.28421875 303.20875 -275.3984375 302.125 C-279.98079999 248.62282172 -270.32603347 194.80448661 -245.0625 147.3125 C-244.63533691 146.50216309 -244.20817383 145.69182617 -243.76806641 144.85693359 C-238.46077919 134.82912288 -233.04691432 125.28342346 -226.0625 116.3125 C-225.11133706 115.02713547 -224.16369162 113.7391638 -223.21875 112.44921875 C-218.0100392 105.36318102 -212.73866992 98.54482478 -206.70703125 92.1328125 C-204.99551559 90.40165955 -204.99551559 90.40165955 -204.0625 88.3125 C-203.4025 88.3125 -202.7425 88.3125 -202.0625 88.3125 C-201.82789063 87.75175781 -201.59328125 87.19101562 -201.3515625 86.61328125 C-197.08209465 78.99292802 -188.72517528 72.89004901 -182.0625 67.3125 C-181.56137695 66.88163086 -181.06025391 66.45076172 -180.54394531 66.00683594 C-130.20487576 22.81341619 -66.1871585 -0.29331118 0 0 Z " fill="#FFFFFF" transform="translate(1344.0625,451.6875)"/>
<path d="M0 0 C7.30458344 3.58694256 10.2677624 12.41200256 13.52734375 19.40234375 C14.11225586 20.64588623 14.11225586 20.64588623 14.70898438 21.91455078 C18.04945854 29.04659465 21.29044841 36.22285156 24.52734375 43.40234375 C26.76291294 48.35581906 29.00220811 53.30759306 31.24484253 58.25787354 C32.18241359 60.33064744 33.11593584 62.40520725 34.04907227 64.47998047 C37.45246196 72.01873962 41.01161999 79.45482834 44.73982239 86.83847046 C47.26374795 91.84419073 49.64278518 96.89633319 51.90234375 102.02734375 C52.65713032 103.72154213 53.4123557 105.41554507 54.16796875 107.109375 C54.74321289 108.40222412 54.74321289 108.40222412 55.33007812 109.72119141 C57.41714985 114.39497233 59.53450246 119.05494402 61.65234375 123.71484375 C62.03567871 124.56062988 62.41901367 125.40641602 62.81396484 126.27783203 C67.74380322 137.12846238 72.80577525 147.91532978 77.9453125 158.66796875 C85.71815655 174.93315117 93.43040332 191.19940716 100.66503906 207.71240234 C103.39609076 213.92646434 106.26558618 220.01855719 109.37939453 226.04833984 C113.4817257 234.09950645 117.05496341 242.40860123 120.69702148 250.67529297 C123.88624751 257.87943462 127.26016746 264.95092217 130.81518555 271.98144531 C133.53931264 277.42426135 136.09910608 282.94028028 138.65234375 288.46484375 C139.47931763 290.24810059 139.47931763 290.24810059 140.32299805 292.06738281 C144.69498083 301.51500919 148.94268816 311.01635517 153.17410278 320.52755737 C156.44650448 327.87538113 159.80570669 335.13743427 163.49682617 342.28320312 C167.37380416 349.88902019 170.7272365 357.74136322 174.14086914 365.56298828 C176.94191384 371.95370765 179.89547501 378.22463148 183.04882812 384.44873047 C185.54922296 389.44373983 187.87622734 394.51758722 190.21484375 399.58984375 C191.05136313 401.39821829 191.88788833 403.20659015 192.7245636 405.01489258 C193.32987407 406.32352941 193.93491933 407.63228895 194.53971863 408.94116211 C197.10235481 414.48707449 199.67338315 420.02906746 202.24609375 425.5703125 C216.62545716 456.5484957 216.62545716 456.5484957 223.45043945 471.61743164 C227.72442724 481.05396424 232.09726211 490.43882099 236.58984375 499.7734375 C237.13463379 500.90547607 237.67942383 502.03751465 238.24072266 503.20385742 C239.33480581 505.47448988 240.43078608 507.74420936 241.52880859 510.01293945 C242.28218506 511.57467896 242.28218506 511.57467896 243.05078125 513.16796875 C243.73019775 514.57224121 243.73019775 514.57224121 244.42333984 516.00488281 C246.78374675 521.13075539 247.42297742 525.82575678 246.52734375 531.40234375 C243.92380815 536.19005351 240.69625728 538.77249677 235.52734375 540.40234375 C232.50905505 540.69581616 229.50434136 540.6858681 226.47363281 540.67700195 C225.57052368 540.68211288 224.66741455 540.68722382 223.73693848 540.69248962 C220.75554752 540.70637289 217.77438817 540.70542933 214.79296875 540.703125 C212.71417149 540.70701354 210.63537503 540.71134853 208.55657959 540.71611023 C204.19882635 540.7235704 199.84115413 540.72328328 195.48339844 540.71801758 C189.9140359 540.71223307 184.34500703 540.72913041 178.77569962 540.75236225 C174.48099852 540.7671372 170.18637698 540.767966 165.89165497 540.76485252 C163.83926484 540.76536417 161.78687008 540.77057231 159.7345047 540.78066444 C156.85566444 540.79308 153.97746379 540.78620576 151.09863281 540.7746582 C150.2598761 540.78230194 149.42111938 540.78994568 148.5569458 540.79782104 C140.31561875 540.72520587 133.15363156 538.84423853 127.05932617 533.09375 C120.68532364 526.05644489 117.29321272 516.65669277 113.46484375 508.08984375 C112.80760366 506.62929883 112.14996531 505.16893307 111.49194336 503.70874023 C109.8220509 499.99892971 108.15966663 496.28580291 106.49890137 492.57189941 C105.25651745 489.79756981 104.00782559 487.02610543 102.75883484 484.25474548 C101.36513959 481.15991404 99.97754331 478.06236852 98.58984375 474.96484375 C98.07607178 473.82297607 97.5622998 472.6811084 97.03295898 471.50463867 C96.56833252 470.46154541 96.10370605 469.41845215 95.625 468.34375 C95.21773682 467.43310791 94.81047363 466.52246582 94.39086914 465.58422852 C93.52734375 463.40234375 93.52734375 463.40234375 93.52734375 461.40234375 C25.21734375 461.40234375 -43.09265625 461.40234375 -113.47265625 461.40234375 C-113.80265625 463.05234375 -114.13265625 464.70234375 -114.47265625 466.40234375 C-115.00846456 467.81060803 -115.59237921 469.20137024 -116.21923828 470.5715332 C-116.5769632 471.36038406 -116.93468811 472.14923492 -117.30325317 472.96199036 C-117.69173431 473.80468979 -118.08021545 474.64738922 -118.48046875 475.515625 C-118.88417694 476.40283737 -119.28788513 477.29004974 -119.7038269 478.20414734 C-120.99683578 481.04332764 -122.29694422 483.87918537 -123.59765625 486.71484375 C-124.87141065 489.50281606 -126.14364865 492.2914738 -127.41511536 495.08049011 C-128.24807438 496.90725394 -129.08212425 498.73352078 -129.9172821 500.5592804 C-131.82497297 504.73880175 -133.71159084 508.9243099 -135.53051758 513.14331055 C-135.84475677 513.87216965 -136.15899597 514.60102875 -136.48275757 515.35197449 C-137.05471551 516.68636368 -137.62228248 518.02264864 -138.18423462 519.36128235 C-141.80295793 527.82103765 -146.92416272 534.60131716 -155.47265625 538.40234375 C-161.01127911 540.29166266 -165.88085187 540.69429402 -171.70922852 540.67700195 C-172.60769501 540.68211288 -173.5061615 540.68722382 -174.43185425 540.69248962 C-177.38432584 540.7063234 -180.33656247 540.70543398 -183.2890625 540.703125 C-185.34976792 540.70701444 -187.41047255 540.71134962 -189.47117615 540.71611023 C-193.78248702 540.72355839 -198.09371597 540.72329067 -202.4050293 540.71801758 C-207.92530631 540.71221512 -213.44524865 540.72917961 -218.96547031 540.75236225 C-223.21801203 540.76710144 -227.47047308 540.7679712 -231.72303581 540.76485252 C-233.75836794 540.76536532 -235.79370463 540.77059523 -237.82901192 540.78066444 C-240.67472186 540.79301935 -243.51977881 540.7862435 -246.36547852 540.7746582 C-247.20252823 540.78230194 -248.03957794 540.78994568 -248.9019928 540.79782104 C-255.34784563 540.7399035 -259.39605996 539.20807965 -264.34765625 534.90234375 C-266.97141905 531.37531835 -267.38035501 528.09597544 -267.11743164 523.76367188 C-266.35354242 519.78138232 -264.76595561 516.56000808 -262.87890625 513.01953125 C-262.1439572 511.59606576 -261.41135107 510.17138853 -260.6809082 508.74560547 C-260.31011139 508.02338806 -259.93931458 507.30117065 -259.55728149 506.55706787 C-257.88355789 503.23203681 -256.33152208 499.85585421 -254.796875 496.46484375 C-254.35213333 495.48309929 -254.35213333 495.48309929 -253.89840698 494.48152161 C-253.29349237 493.14237995 -252.68967921 491.80274022 -252.08694458 490.46261597 C-251.12871822 488.33245628 -250.16631898 486.20422321 -249.20288086 484.07641602 C-247.90132054 481.20138065 -246.60089918 478.32583626 -245.30175781 475.44970703 C-233.29246003 448.86890808 -233.29246003 448.86890808 -227.37792969 437.24682617 C-224.45448078 431.46286989 -221.80669723 425.56864646 -219.17041016 419.64941406 C-215.92267512 412.36826765 -212.58575026 405.13087365 -209.22265625 397.90234375 C-208.67424072 396.72317383 -208.1258252 395.54400391 -207.56079102 394.32910156 C-205.58128805 390.07528216 -203.60009818 385.82225056 -201.61865234 381.56933594 C-199.65191375 377.34765893 -197.68668604 373.12528189 -195.72265625 368.90234375 C-195.1800415 367.73606445 -194.63742676 366.56978516 -194.07836914 365.36816406 C-190.88359089 358.48680356 -187.74687158 351.58275299 -184.66015625 344.65234375 C-182.1207909 338.95677235 -179.48929569 333.3346592 -176.66015625 327.77734375 C-172.09496204 318.80758041 -167.93812049 309.65458166 -163.7421875 300.5078125 C-161.53016844 295.68846042 -159.29885881 290.87887551 -157.046875 286.078125 C-156.75900116 285.46425934 -156.47112732 284.85039368 -156.17453003 284.21792603 C-155.5888972 282.9692134 -155.00325467 281.72050533 -154.41760254 280.47180176 C-150.54504324 272.21294898 -146.69443158 263.94708015 -142.9765625 255.6171875 C-142.69093948 254.97732407 -142.40531647 254.33746063 -142.11103821 253.6782074 C-140.76271324 250.6531887 -139.42077021 247.62560015 -138.08618164 244.59448242 C-135.37753551 238.48361598 -132.53890547 232.46748352 -129.5234375 226.50390625 C-125.96530233 219.46669269 -122.65160903 212.3435077 -119.4291687 205.14733887 C-112.56907672 189.83899501 -105.44880596 174.65910158 -98.25538635 159.50514221 C-93.56068103 149.61305061 -88.89149696 139.71129668 -84.50878906 129.67602539 C-81.74468201 123.34716828 -78.87528845 117.10943346 -75.72265625 110.96484375 C-70.83334067 101.41109392 -66.60909391 91.55721769 -62.27734375 81.7421875 C-58.21853779 72.54766761 -53.95387609 63.46344632 -49.58203125 54.4140625 C-49.04819824 53.30885254 -48.51436523 52.20364258 -47.96435547 51.06494141 C-46.84464273 48.74769932 -45.7238738 46.43096729 -44.60205078 44.11474609 C-41.70860096 38.12087461 -38.86123077 32.11284539 -36.10546875 26.0546875 C-35.29952271 24.28605347 -35.29952271 24.28605347 -34.47729492 22.48168945 C-33.45541326 20.22921965 -32.43964825 17.97396184 -31.4309082 15.71557617 C-30.73807739 14.18767456 -30.73807739 14.18767456 -30.03125 12.62890625 C-29.63220459 11.73768066 -29.23315918 10.84645508 -28.82202148 9.92822266 C-22.73556175 -1.4650309 -11.94852297 -2.88803162 0 0 Z M-10.47265625 233.40234375 C-16.70162756 245.16387965 -22.01292935 257.30238695 -27.28369141 269.51367188 C-30.92465294 277.9390991 -34.69711287 286.28796105 -38.61605835 294.58773804 C-40.00313706 297.52610731 -41.38195404 300.46834711 -42.76171875 303.41015625 C-43.30489746 304.56813721 -43.84807617 305.72611816 -44.40771484 306.91918945 C-49.97752945 318.81117011 -55.47099252 330.73418932 -60.84765625 342.71484375 C-61.13441223 343.35238586 -61.42116821 343.98992798 -61.71661377 344.64678955 C-62.52036977 346.43538629 -63.32082038 348.22546732 -64.12109375 350.015625 C-64.57661621 351.03438721 -65.03213867 352.05314941 -65.50146484 353.1027832 C-66.53749999 355.13983974 -66.53749999 355.13983974 -66.47265625 356.40234375 C-29.18265625 356.40234375 8.10734375 356.40234375 46.52734375 356.40234375 C38.20744902 337.23450121 38.20744902 337.23450121 29.45172119 318.28482056 C27.71431883 314.64061669 25.99028683 310.99009025 24.265625 307.33984375 C23.93173767 306.63362381 23.59785034 305.92740387 23.25384521 305.19978333 C20.49279637 299.35055476 17.81925077 293.4659146 15.19262695 287.55517578 C10.159995 276.2710252 4.92596261 265.07739807 -0.26708984 253.86645508 C-0.65251953 253.03344879 -1.03794922 252.2004425 -1.43505859 251.3421936 C-2.16189898 249.77138049 -2.88954681 248.20094063 -3.61816406 246.63095093 C-5.6443718 242.25082812 -7.59261309 237.84724549 -9.47265625 233.40234375 C-9.80265625 233.40234375 -10.13265625 233.40234375 -10.47265625 233.40234375 Z " fill="#FFFFFF" transform="translate(851.47265625,452.59765625)"/>
<path d="M0 0 C0.86915039 -0.0071553 1.73830078 -0.01431061 2.63378906 -0.02168274 C4.06757904 -0.02571609 4.06757904 -0.02571609 5.53033447 -0.02983093 C7.03787292 -0.03968773 7.03787292 -0.03968773 8.5758667 -0.04974365 C11.91257801 -0.06950631 15.24924425 -0.0811461 18.58599854 -0.09111023 C19.72406197 -0.09518576 20.8621254 -0.09926128 22.0346756 -0.10346031 C28.05861735 -0.12433408 34.08253623 -0.13862994 40.10650635 -0.147995 C46.33206916 -0.15905987 52.55727458 -0.19345731 58.78271103 -0.23316669 C63.5662503 -0.25930061 68.34970403 -0.26768401 73.13330841 -0.27127647 C75.4282294 -0.27615105 77.72314635 -0.28778966 80.01799774 -0.30631447 C83.23073196 -0.33063573 86.44253657 -0.32975331 89.65533447 -0.32279968 C90.60309753 -0.33560974 91.5508606 -0.3484198 92.52734375 -0.36161804 C98.12589469 -0.31746311 101.51734833 0.25599792 105.85162354 4.14717102 C111.13222965 9.87640353 110.40914551 16.00433942 110.35282898 23.48324585 C110.35672336 24.8593964 110.3623649 26.23554293 110.36959988 27.61167997 C110.38435588 31.38865318 110.37417228 35.16520952 110.35986316 38.94216931 C110.34875641 43.01818905 110.3606957 47.09415016 110.3697052 51.17016602 C110.38364732 59.15749597 110.37607162 67.14466793 110.36102962 75.13199038 C110.34415636 84.44766073 110.34738204 93.76329184 110.3511237 103.07897275 C110.35700534 119.71965726 110.34282545 136.3602662 110.31817627 153.00093079 C110.29431261 169.11326439 110.28714904 185.22549676 110.29766846 201.33784485 C110.30911311 218.89866626 110.31095961 236.45944082 110.29657036 254.0202617 C110.29504465 255.89858305 110.29352429 257.7769044 110.29200935 259.65522575 C110.29125154 260.57924192 110.29049373 261.50325809 110.28971295 262.45527475 C110.28499288 268.93165741 110.28680572 275.408019 110.29107475 281.88440132 C110.29603474 289.80089687 110.28987193 297.71729721 110.27018046 305.63377113 C110.26039719 309.66471534 110.25510419 313.69551554 110.26307297 317.72646713 C110.29251106 334.39722052 110.00138766 350.71476826 106.85162354 367.14717102 C106.70229555 367.94322663 106.55296757 368.73928225 106.39911449 369.55946076 C96.13947399 423.63586119 62.25340699 470.61303375 17.85162354 502.14717102 C-19.888084 527.57922163 -62.65678356 540.42083974 -108.02337646 540.58467102 C-108.92254791 540.5910257 -109.82171936 540.59738037 -110.74813843 540.60392761 C-127.38023074 540.67703613 -143.61333238 538.86233508 -159.77337646 534.83467102 C-161.07190552 534.5150238 -161.07190552 534.5150238 -162.39666748 534.18891907 C-197.69824034 525.26909778 -227.87062674 507.94265483 -255.14837646 484.14717102 C-256.41681396 483.06435852 -256.41681396 483.06435852 -257.71087646 481.95967102 C-261.84749921 478.38205135 -265.62535495 474.70185282 -269.14837646 470.51826477 C-270.70695706 468.67049442 -272.28854348 466.859664 -273.89837646 465.05732727 C-285.24286741 452.26124127 -294.20303222 438.26625485 -302.14837646 423.14717102 C-302.49110596 422.49587219 -302.83383545 421.84457336 -303.18695068 421.17353821 C-316.76569413 394.92606763 -324.11715845 365.20702705 -324.64837646 335.70967102 C-324.70251709 334.42512024 -324.75665771 333.14056946 -324.81243896 331.8170929 C-324.9027566 325.5561456 -324.94351239 321.18842003 -320.74212646 316.29951477 C-317.4774471 313.15282058 -315.48277219 312.02431168 -310.95530701 312.00672913 C-310.0762973 312.00101898 -309.1972876 311.99530884 -308.29164124 311.98942566 C-307.32485947 311.9883078 -306.3580777 311.98718994 -305.36199951 311.98603821 C-303.83742126 311.97859085 -303.83742126 311.97859085 -302.28204346 311.97099304 C-298.90805391 311.9563468 -295.53411138 311.94956515 -292.16009521 311.94404602 C-289.82080585 311.93829639 -287.4815165 311.93253864 -285.14222717 311.92677307 C-280.23192118 311.91625593 -275.3216316 311.910418 -270.41131592 311.90693665 C-264.1162189 311.90145187 -257.82133818 311.87742702 -251.52630901 311.84896469 C-246.69219833 311.83034973 -241.85813985 311.8251333 -237.02399635 311.82360077 C-234.70314159 311.8205709 -232.38228781 311.81253119 -230.06146812 311.79941559 C-226.81512334 311.78238006 -223.56930824 311.78422951 -220.32293701 311.79072571 C-219.36222794 311.78151093 -218.40151886 311.77229614 -217.41169739 311.76280212 C-212.50305967 311.7936054 -209.11049831 311.9134929 -205.14837646 315.14717102 C-200.59176033 320.29534785 -200.35555627 325.33505685 -199.77337646 331.89717102 C-197.54315368 352.16534568 -190.37980792 373.32465797 -175.37884521 387.86201477 C-174.14837646 389.14717102 -174.14837646 389.14717102 -174.14837646 391.14717102 C-173.55798584 391.4127179 -172.96759521 391.67826477 -172.35931396 391.95185852 C-170.09121594 393.17807406 -168.61485549 394.4806869 -166.77337646 396.27217102 C-150.2598314 410.97811097 -125.93097856 418.09416011 -104.1083374 417.04951477 C-79.46104974 415.28170931 -55.70450486 405.80360519 -38.66790771 387.47920227 C-33.8255997 381.72845456 -29.75013854 375.73807874 -26.14837646 369.14717102 C-25.71911865 368.40467102 -25.28986084 367.66217102 -24.84759521 366.89717102 C-21.9789734 361.63951122 -20.1032441 356.23994904 -18.39837646 350.52217102 C-18.18753418 349.8176178 -17.97669189 349.11306458 -17.75946045 348.38716125 C-15.16690659 339.28080254 -15.00213173 330.42535017 -15.01034546 321.00787354 C-15.00752418 319.69107324 -15.0047029 318.37427294 -15.00179613 317.0175696 C-14.99407902 313.37784806 -14.99242566 309.7381454 -14.991745 306.09841669 C-14.98989886 302.16722888 -14.98228857 298.23605197 -14.9752655 294.30487061 C-14.96375987 287.49731521 -14.95550529 280.68976227 -14.94914627 273.88220024 C-14.93880432 263.12183889 -14.91823796 252.36150823 -14.89602661 241.60116577 C-14.88854775 237.91755209 -14.88113394 234.23393829 -14.87373924 230.55032444 C-14.87096339 229.16964086 -14.87096339 229.16964086 -14.86813147 227.76106469 C-14.84722034 217.29235767 -14.82838298 206.82364727 -14.81048584 196.35493469 C-14.80884766 195.39831692 -14.80720948 194.44169915 -14.80552165 193.45609296 C-14.77921645 177.94167211 -14.76058215 162.42724888 -14.74389394 146.91281515 C-14.72647698 130.9781952 -14.69763917 115.04362198 -14.65900457 99.10903937 C-14.63560666 89.28301901 -14.62161019 79.45707483 -14.61967693 69.63102639 C-14.61756852 62.90028174 -14.60464737 56.16961292 -14.58319761 49.43890231 C-14.571165 45.55549923 -14.56401972 41.67224673 -14.56991005 37.78882599 C-14.5761814 33.57889761 -14.55939185 29.36937482 -14.54037476 25.15948486 C-14.54590445 23.93244636 -14.55143415 22.70540786 -14.55713141 21.44118637 C-14.50875595 15.2537386 -14.2700567 10.55814106 -11.14837646 5.14717102 C-7.45782254 1.72665763 -4.99437522 0.02818368 0 0 Z " fill="#FFFFFF" transform="translate(485.14837646484375,459.8528289794922)"/>
<path d="M0 0 C1.21039452 -0.00445784 2.42078904 -0.00891569 3.66786218 -0.01350862 C5.01800935 -0.01341932 6.36815653 -0.01322946 7.71830368 -0.01294994 C9.14721074 -0.01624863 10.57611687 -0.01997421 12.00502181 -0.02409142 C15.94107699 -0.03411892 19.87711692 -0.03782941 23.81318307 -0.04048073 C28.05461924 -0.04438153 32.29604331 -0.05395997 36.53747177 -0.0626936 C46.78476479 -0.08246363 57.03205881 -0.09252458 67.27936614 -0.10142139 C72.10304493 -0.10580311 76.92672262 -0.1111702 81.75040054 -0.11641026 C97.78174359 -0.13342253 113.81308595 -0.14791747 129.84443665 -0.155159 C134.00541561 -0.15706894 138.16639456 -0.15898927 142.3273735 -0.16094494 C143.36158415 -0.16142868 144.3957948 -0.16191242 145.46134517 -0.16241082 C162.22092947 -0.17071399 178.98044247 -0.19605577 195.73999563 -0.22852562 C212.9400446 -0.2615777 230.1400573 -0.27960605 247.3401382 -0.28280324 C257.00006452 -0.28496997 266.65988684 -0.2937426 276.31978226 -0.31926441 C284.54526602 -0.34094608 292.77062051 -0.34903431 300.9961296 -0.33929763 C305.19347102 -0.33474565 309.39054557 -0.3366911 313.58785057 -0.35605907 C317.43096139 -0.37363965 321.27360967 -0.37273494 325.11672506 -0.35716178 C326.50639294 -0.35477792 327.89609243 -0.35914962 329.28571191 -0.37099043 C342.22414123 -0.47440144 342.22414123 -0.47440144 348.2311821 4.13422108 C351.96972919 8.39852327 351.66375966 12.83956163 351.63523483 18.23553944 C351.64552971 19.59743145 351.64552971 19.59743145 351.65603256 20.98683643 C351.67430701 23.98273912 351.67046208 26.97811845 351.66477585 29.97406483 C351.66933736 32.06004984 351.67464284 34.14603334 351.68066025 36.23201466 C351.68959265 40.60239234 351.68716672 44.9725873 351.67722702 49.34296131 C351.66573781 54.93963195 351.68594774 60.53567162 351.71514416 66.13225937 C351.73350285 70.43972744 351.73321432 74.74704421 351.72750664 79.05454159 C351.72735338 81.11778683 351.73340136 83.18104229 351.74579811 85.2442503 C351.76069963 88.13107057 351.75003694 91.01672407 351.73289108 93.90350819 C351.74255905 94.75305073 351.75222702 95.60259327 351.76218796 96.47787952 C351.69602808 101.80579928 350.98814996 105.06612515 347.2311821 109.13422108 C341.14137142 113.39492025 335.37440483 113.69150828 328.13352585 113.58832264 C327.0497113 113.58890675 325.96589676 113.58949085 324.84923935 113.59009266 C321.28872085 113.58731958 317.72905326 113.55626295 314.1686821 113.52484608 C311.69147321 113.51738096 309.21425839 113.51168931 306.73704147 113.5076952 C300.23335443 113.49246037 293.73002762 113.45319645 287.22648239 113.40887928 C280.58356055 113.36788048 273.94060337 113.34967434 267.29758835 113.32953358 C254.27529971 113.28670066 241.25326011 113.2192494 228.2311821 113.13422108 C228.23346042 114.4283814 228.23346042 114.4283814 228.23578477 115.74868637 C228.32526036 166.86221025 228.39390976 217.97572583 228.43544342 269.08931232 C228.44044636 275.22399232 228.44562363 281.35867217 228.45090866 287.49335194 C228.4519579 288.71467721 228.45300714 289.93600247 228.45408818 291.1943376 C228.47150238 310.9804375 228.50304567 330.76649101 228.53979328 350.55256338 C228.57717445 370.84874701 228.59941198 391.14490631 228.60753608 411.44112295 C228.6130297 423.96908617 228.63039265 436.49691826 228.66284797 449.02484112 C228.68396097 457.61096073 228.69038942 466.19701235 228.68518761 474.78315604 C228.68262083 479.73994047 228.68660771 484.69649543 228.708004 489.65323925 C228.72744618 494.19034789 228.72846727 498.7270724 228.71477768 503.26419859 C228.71308534 504.90631192 228.71817933 506.54844906 228.73071483 508.19051541 C228.74676497 510.42260693 228.73811937 512.65331141 228.72337341 514.8853817 C228.72565174 516.74506202 228.72565174 516.74506202 228.72797608 518.64231163 C228.04205584 523.46356844 226.21962002 527.43100176 222.4321804 530.67517662 C217.051136 533.20036726 212.4194864 533.7016447 206.51389694 533.63593006 C205.57627014 533.64133305 204.63864334 533.64673603 203.67260361 533.65230274 C200.59544745 533.66473735 197.51923642 533.64833639 194.4421196 533.63031483 C192.2931628 533.63046991 190.14420573 533.63196045 187.9952507 533.63472462 C183.5015024 533.63610616 179.00807423 533.62358912 174.51438522 533.60077381 C168.75981375 533.57235592 163.0057725 533.5751392 157.25116158 533.58786392 C152.81759246 533.59482351 148.38414555 533.58702912 143.95059204 533.5746069 C141.82874775 533.57009756 139.70689032 533.56975106 137.58504486 533.57367229 C134.61964953 533.57658808 131.65498152 533.56006071 128.68967819 533.53827381 C127.81679657 533.54277546 126.94391495 533.54727711 126.04458237 533.55191517 C120.34028119 533.4824087 115.92869739 532.65232917 111.58665085 528.59906483 C107.85721481 523.72211001 107.10625879 521.63344834 107.10813427 515.50062084 C107.10698043 514.80776832 107.10582658 514.11491579 107.10463777 513.40106773 C107.10196987 511.05618504 107.10649469 508.71136964 107.11092758 506.36649036 C107.11049192 504.67772074 107.10961709 502.98895118 107.10833842 501.30018198 C107.10609256 496.64144843 107.11011599 491.98273768 107.11511648 487.32400703 C107.11941949 482.30695373 107.11797466 477.2899018 107.1172142 472.27284718 C107.11668887 463.57443784 107.11983662 454.87603598 107.12545204 446.17762852 C107.13356582 433.60106233 107.13618214 421.02449977 107.13744003 408.44793124 C107.13963075 388.04518205 107.14629135 367.64243685 107.15574265 347.23968983 C107.16491626 327.4157968 107.17199734 307.59190486 107.17625046 287.76801014 C107.17651318 286.5468544 107.1767759 285.32569865 107.17704659 284.06753819 C107.17835159 277.94159432 107.17961531 271.81565044 107.18085849 265.68970656 C107.19123171 214.83787531 107.20885054 163.98604839 107.2311821 113.13422108 C106.38414719 113.13975183 106.38414719 113.13975183 105.52000046 113.14539433 C91.7560152 113.23387623 77.99208003 113.29973846 64.22787094 113.34146976 C57.57146264 113.36233043 50.91531446 113.3906208 44.25901413 113.43597889 C37.83345651 113.47948984 31.40809639 113.50336966 24.9824028 113.51373005 C22.53282691 113.52111189 20.08326164 113.53552688 17.63376999 113.5571413 C14.19855649 113.58624396 10.76415561 113.59017405 7.32883835 113.58832264 C6.31966858 113.60270374 5.31049881 113.61708485 4.27074814 113.63190174 C-1.84025428 113.59634256 -6.74040818 112.80702684 -11.7688179 109.13422108 C-16.0267342 104.22245986 -16.34407131 99.26645113 -16.27052689 92.97357655 C-16.27592987 92.08325733 -16.28133286 91.19293812 -16.28689957 90.27563953 C-16.29934541 87.35055145 -16.28292609 84.42645544 -16.26491165 81.50140858 C-16.26506671 79.46072812 -16.26655679 77.42004737 -16.26932144 75.37936878 C-16.27070348 71.11083362 -16.25817761 66.84263527 -16.23537064 62.57416248 C-16.2069507 57.10531095 -16.20973579 51.63701726 -16.22246075 46.1681242 C-16.22941702 41.95762847 -16.22162979 37.74726155 -16.20920372 33.53678226 C-16.20469128 31.52017301 -16.20435061 29.50354993 -16.20826912 27.48693943 C-16.21118172 24.66969678 -16.19467314 21.8532221 -16.17287064 19.03607655 C-16.17737228 18.2047823 -16.18187393 17.37348804 -16.18651199 16.51700306 C-16.11031799 10.5869635 -14.76040475 7.37475628 -10.7688179 2.88422108 C-7.36685818 -0.09249368 -4.34086353 0.00740008 0 0 Z " fill="#FFFFFF" transform="translate(2487.7688179016113,459.86577892303467)"/>
<path d="M0 0 C57.75992991 0 57.75992991 0 68.01953125 9.71484375 C73.93850632 16.54443036 76.41113353 24.53847237 76.27734375 33.47265625 C75.39036431 41.55541253 71.72867071 49.24625852 66 55 C58.38115632 61 58.38115632 61 55 61 C59.84971849 70.94956573 64.95737646 80.7098214 70.40551758 90.34667969 C70.85822021 91.15524414 71.31092285 91.96380859 71.77734375 92.796875 C72.18202881 93.51198242 72.58671387 94.22708984 73.00366211 94.96386719 C73.99975897 96.99950742 74.64138678 98.76328563 75 101 C74.67 101.66 74.34 102.32 74 103 C68.39 103 62.78 103 57 103 C50.21209906 90.05773554 43.48588567 77.09649992 37 64 C30.07 63.67 23.14 63.34 16 63 C16.01160156 65.80371094 16.02320312 68.60742188 16.03515625 71.49609375 C16.04294633 74.19995002 16.04902337 76.90380506 16.05493164 79.60766602 C16.05997244 81.4924373 16.06680498 83.37720465 16.07543945 85.26196289 C16.08751617 87.96501636 16.09323068 90.66801831 16.09765625 93.37109375 C16.10281754 94.21900986 16.10797882 95.06692596 16.11329651 95.9405365 C16.11349195 97.96071068 16.06206211 99.98077934 16 102 C15.505 102.495 15.505 102.495 15 103 C10.05 103 5.1 103 0 103 C0 69.01 0 35.02 0 0 Z M16 15 C16 26.55 16 38.1 16 50 C20.104375 50.061875 24.20875 50.12375 28.4375 50.1875 C29.71294678 50.21481201 30.98839355 50.24212402 32.30249023 50.27026367 C40.38294559 50.32885879 46.96786103 49.54200065 53.875 45.1875 C57.76991545 41.17802821 59.18579474 37.59162548 59.4375 32.0625 C59.25927437 26.90945465 58.12058013 24.10602648 55 20 C49.60623054 15.81707674 45.87391521 14.87394972 39.14453125 14.90234375 C37.32852417 14.90609009 37.32852417 14.90609009 35.47583008 14.90991211 C33.16748169 14.92356812 33.16748169 14.92356812 30.8125 14.9375 C25.924375 14.958125 21.03625 14.97875 16 15 Z " fill="#FBD11A" transform="translate(2248,1161)"/>
<path d="M0 0 C57.75992991 0 57.75992991 0 68.01953125 9.71484375 C73.93850632 16.54443036 76.41113353 24.53847237 76.27734375 33.47265625 C75.39036431 41.55541253 71.72867071 49.24625852 66 55 C58.38115632 61 58.38115632 61 55 61 C59.84971849 70.94956573 64.95737646 80.7098214 70.40551758 90.34667969 C70.85822021 91.15524414 71.31092285 91.96380859 71.77734375 92.796875 C72.18202881 93.51198242 72.58671387 94.22708984 73.00366211 94.96386719 C73.99975897 96.99950742 74.64138678 98.76328563 75 101 C74.67 101.66 74.34 102.32 74 103 C68.39 103 62.78 103 57 103 C50.21209906 90.05773554 43.48588567 77.09649992 37 64 C30.07 63.67 23.14 63.34 16 63 C16.01160156 65.80371094 16.02320313 68.60742188 16.03515625 71.49609375 C16.04294633 74.19995002 16.04902337 76.90380506 16.05493164 79.60766602 C16.05997244 81.4924373 16.06680498 83.37720465 16.07543945 85.26196289 C16.08751617 87.96501636 16.09323068 90.66801831 16.09765625 93.37109375 C16.10281754 94.21900986 16.10797882 95.06692596 16.11329651 95.9405365 C16.11349195 97.96071068 16.06206211 99.98077934 16 102 C15.505 102.495 15.505 102.495 15 103 C10.05 103 5.1 103 0 103 C0 69.01 0 35.02 0 0 Z M16 15 C16 26.55 16 38.1 16 50 C20.104375 50.061875 24.20875 50.12375 28.4375 50.1875 C29.71294678 50.21481201 30.98839355 50.24212402 32.30249023 50.27026367 C40.38294559 50.32885879 46.96786103 49.54200065 53.875 45.1875 C57.76991545 41.17802821 59.18579474 37.59162548 59.4375 32.0625 C59.25927437 26.90945465 58.12058013 24.10602648 55 20 C49.60623054 15.81707674 45.87391521 14.87394972 39.14453125 14.90234375 C37.32852417 14.90609009 37.32852417 14.90609009 35.47583008 14.90991211 C33.16748169 14.92356812 33.16748169 14.92356812 30.8125 14.9375 C25.924375 14.958125 21.03625 14.97875 16 15 Z " fill="#FBD11A" transform="translate(1103,1161)"/>
<path d="M0 0 C8 0 8 0 10.72265625 2.125 C11.49480469 3.07375 12.26695313 4.0225 13.0625 5 C13.4867627 5.50619873 13.91102539 6.01239746 14.34814453 6.53393555 C15.58205302 8.00887466 16.79165365 9.50404724 18 11 C19.11851776 12.27654235 20.24280235 13.54807489 21.375 14.8125 C23.50343371 17.25570208 25.61125073 19.71570522 27.7109375 22.18359375 C32.61349821 27.93971456 37.54050557 33.64779954 42.6875 39.1875 C46.05583447 42.81283208 49.2792202 46.51232393 52.375 50.375 C57.95919931 57.16659376 64.01709612 63.55687274 70 70 C70.33 47.23 70.66 24.46 71 1 C75.95 1 80.9 1 86 1 C86 35.32 86 69.64 86 105 C78 105 78 105 76.08886719 103.84521484 C75.66250977 103.30590332 75.23615234 102.7665918 74.796875 102.2109375 C74.29784668 101.60620605 73.79881836 101.00147461 73.28466797 100.37841797 C72.77822754 99.71729004 72.27178711 99.05616211 71.75 98.375 C70.62261742 96.98940301 69.49500813 95.60399046 68.3671875 94.21875 C67.52559082 93.15914062 67.52559082 93.15914062 66.66699219 92.078125 C64.14998745 88.94034756 61.51085434 85.91286086 58.875 82.875 C54.60779282 77.90123697 50.37183064 72.90131472 46.14404297 67.89404297 C42.78074395 63.91375753 39.39472408 59.95350167 36 56 C31.96766185 51.3014038 27.94345976 46.59611768 23.9375 41.875 C23.48439453 41.34261719 23.03128906 40.81023437 22.56445312 40.26171875 C20.27829498 37.56273387 18.12510328 34.83347104 16 32 C15.67 55.76 15.34 79.52 15 104 C10.05 104 5.1 104 0 104 C0 69.68 0 35.36 0 0 Z " fill="#FBD11A" transform="translate(1916,1160)"/>
<path d="M0 0 C8 0 8 0 10.72265625 2.125 C11.49480469 3.07375 12.26695313 4.0225 13.0625 5 C13.4867627 5.50619873 13.91102539 6.01239746 14.34814453 6.53393555 C15.58205302 8.00887466 16.79165365 9.50404724 18 11 C19.11851776 12.27654235 20.24280235 13.54807489 21.375 14.8125 C23.50343371 17.25570208 25.61125073 19.71570522 27.7109375 22.18359375 C32.61349821 27.93971456 37.54050557 33.64779954 42.6875 39.1875 C46.05583447 42.81283208 49.2792202 46.51232393 52.375 50.375 C57.95919931 57.16659376 64.01709612 63.55687274 70 70 C70.33 47.23 70.66 24.46 71 1 C75.95 1 80.9 1 86 1 C86 35.32 86 69.64 86 105 C78 105 78 105 76.08886719 103.84521484 C75.66250977 103.30590332 75.23615234 102.7665918 74.796875 102.2109375 C74.29784668 101.60620605 73.79881836 101.00147461 73.28466797 100.37841797 C72.77822754 99.71729004 72.27178711 99.05616211 71.75 98.375 C70.62261742 96.98940301 69.49500813 95.60399046 68.3671875 94.21875 C67.52559082 93.15914062 67.52559082 93.15914062 66.66699219 92.078125 C64.14998745 88.94034756 61.51085434 85.91286086 58.875 82.875 C54.60779282 77.90123697 50.37183064 72.90131472 46.14404297 67.89404297 C42.78074395 63.91375753 39.39472408 59.95350167 36 56 C31.96766185 51.3014038 27.94345976 46.59611768 23.9375 41.875 C23.48439453 41.34261719 23.03128906 40.81023437 22.56445312 40.26171875 C20.27829498 37.56273387 18.12510328 34.83347104 16 32 C15.67 55.76 15.34 79.52 15 104 C10.05 104 5.1 104 0 104 C0 69.68 0 35.36 0 0 Z " fill="#FBD11A" transform="translate(1392,1160)"/>
<path d="M0 0 C8 0 8 0 10.72265625 2.125 C11.49480469 3.07375 12.26695312 4.0225 13.0625 5 C13.4867627 5.50619873 13.91102539 6.01239746 14.34814453 6.53393555 C15.58205302 8.00887466 16.79165365 9.50404724 18 11 C19.11851776 12.27654235 20.24280235 13.54807489 21.375 14.8125 C23.50343371 17.25570208 25.61125073 19.71570522 27.7109375 22.18359375 C32.61349821 27.93971456 37.54050557 33.64779954 42.6875 39.1875 C46.05583447 42.81283208 49.2792202 46.51232393 52.375 50.375 C57.95919931 57.16659376 64.01709612 63.55687274 70 70 C70.33 47.23 70.66 24.46 71 1 C75.95 1 80.9 1 86 1 C86 35.32 86 69.64 86 105 C78 105 78 105 76.08886719 103.84521484 C75.66250977 103.30590332 75.23615234 102.7665918 74.796875 102.2109375 C74.29784668 101.60620605 73.79881836 101.00147461 73.28466797 100.37841797 C72.77822754 99.71729004 72.27178711 99.05616211 71.75 98.375 C70.62261742 96.98940301 69.49500813 95.60399046 68.3671875 94.21875 C67.52559082 93.15914062 67.52559082 93.15914062 66.66699219 92.078125 C64.14998745 88.94034756 61.51085434 85.91286086 58.875 82.875 C54.60779282 77.90123697 50.37183064 72.90131472 46.14404297 67.89404297 C42.78074395 63.91375753 39.39472408 59.95350167 36 56 C31.96766185 51.3014038 27.94345976 46.59611768 23.9375 41.875 C23.48439453 41.34261719 23.03128906 40.81023437 22.56445312 40.26171875 C20.27829498 37.56273387 18.12510328 34.83347104 16 32 C15.67 55.76 15.34 79.52 15 104 C10.05 104 5.1 104 0 104 C0 69.68 0 35.36 0 0 Z " fill="#FBD11A" transform="translate(789,1160)"/>
<path d="M0 0 C1.27875 0.00257812 2.5575 0.00515625 3.875 0.0078125 C5.15375 0.00523438 6.4325 0.00265625 7.75 0 C10.875 0.1328125 10.875 0.1328125 11.875 1.1328125 C12.0353556 4.16088294 12.13460448 7.16866704 12.19140625 10.19921875 C12.21218735 11.10784164 12.23296844 12.01646454 12.25437927 12.95262146 C12.31997672 15.86677196 12.3788068 18.78101554 12.4375 21.6953125 C12.48067554 23.66602541 12.52428951 25.63672876 12.56835938 27.60742188 C12.67566843 32.44912238 12.77690675 37.29091687 12.875 42.1328125 C13.28863297 41.68557831 13.70226593 41.23834412 14.12843323 40.77755737 C17.29950257 37.35367164 20.48714473 33.9488398 23.71484375 30.578125 C26.98590891 27.15289211 30.19629278 23.68340121 33.36842346 20.16719055 C35.47903709 17.84630791 37.6262219 15.56126037 39.7805481 13.28097534 C40.83358436 12.15118899 41.87188388 11.00746361 42.89401245 9.84963989 C51.53151971 0.09736521 51.53151971 0.09736521 58.21875 -0.57373047 C62.1564932 -0.69353196 65.97258752 -0.37989278 69.875 0.1328125 C70.53125 2.44213867 70.53125 2.44213867 70.875 5.1328125 C68.93794923 7.49661976 67.11594025 9.4100741 64.875 11.4453125 C63.72648299 12.52188369 62.58066726 13.60134356 61.4375 14.68359375 C60.84525635 15.24320801 60.2530127 15.80282227 59.64282227 16.37939453 C57.87929707 18.12855044 56.26490699 19.9434786 54.65234375 21.83203125 C49.8780817 27.38643202 44.63491372 32.47993604 39.4375 37.6328125 C38.4092702 38.65601389 37.38127374 39.67944983 36.35351562 40.703125 C33.86335662 43.18239249 31.37007167 45.65848788 28.875 48.1328125 C31.26481172 51.78001186 33.52203238 55.00351941 36.6875 58.0078125 C39.91316942 61.15062069 42.90005922 64.39680827 45.8359375 67.80859375 C48.42253713 70.75692091 51.0834786 73.63185008 53.75 76.5078125 C64.39084534 87.99773217 64.39084534 87.99773217 68.875 93.1328125 C69.638125 93.9475 70.40125 94.7621875 71.1875 95.6015625 C72.875 98.1328125 72.875 98.1328125 72.625 100.9453125 C72.25375 102.028125 72.25375 102.028125 71.875 103.1328125 C55.94436576 104.34657511 55.94436576 104.34657511 51.4375 101.703125 C49.69184719 99.61337717 48.30891539 97.44654543 46.875 95.1328125 C45.40413239 93.44038044 43.90231444 91.77448493 42.375 90.1328125 C39.11109152 86.51604905 35.88709051 82.86891642 32.6875 79.1953125 C30.60288836 76.82316821 28.49071356 74.47725185 26.375 72.1328125 C23.54955334 68.99825714 20.72995597 65.85932186 17.9375 62.6953125 C17.39222656 62.07785156 16.84695313 61.46039062 16.28515625 60.82421875 C14.875 59.1328125 14.875 59.1328125 12.875 56.1328125 C12.86469254 56.70688339 12.85438507 57.28095428 12.84376526 57.87242126 C12.73592566 63.82546912 12.62131023 69.77835865 12.50268555 75.73120117 C12.45926412 77.95545146 12.41759455 80.17973665 12.37768555 82.40405273 C12.32015694 85.59369445 12.25641316 88.7831593 12.19140625 91.97265625 C12.16633751 93.47420509 12.16633751 93.47420509 12.14076233 95.00608826 C12.12081711 95.92696732 12.10087189 96.84784637 12.08032227 97.79663086 C12.06477798 98.61159531 12.0492337 99.42655975 12.03321838 100.26622009 C11.875 102.1328125 11.875 102.1328125 10.875 103.1328125 C8.54339945 103.23190552 6.20870058 103.26251754 3.875 103.2578125 C2.59625 103.26039062 1.3175 103.26296875 0 103.265625 C-3.125 103.1328125 -3.125 103.1328125 -4.125 102.1328125 C-4.22568417 99.00257766 -4.2611416 95.8943633 -4.25439453 92.76367188 C-4.25614685 91.78002151 -4.25789917 90.79637115 -4.25970459 89.78291321 C-4.26412505 86.51411197 -4.26118443 83.24536434 -4.2578125 79.9765625 C-4.25848548 77.71594228 -4.25945546 75.45532212 -4.26071167 73.19470215 C-4.26218891 68.44994418 -4.26003326 63.70520501 -4.25537109 58.96044922 C-4.2496738 52.86342626 -4.25295266 46.76644731 -4.25894356 40.66942596 C-4.26254848 35.99932521 -4.2614109 31.32923497 -4.25881577 26.65913391 C-4.2581463 24.41034439 -4.25897558 22.16155393 -4.26129532 19.9127655 C-4.26382071 16.77580212 -4.25998285 13.63891109 -4.25439453 10.50195312 C-4.25641876 9.56269485 -4.25844299 8.62343658 -4.26052856 7.65571594 C-4.23572135 0.18001816 -4.23572135 0.18001816 0 0 Z " fill="#FBD11A" transform="translate(1770.125,1160.8671875)"/>
<path d="M0 0 C2.47923801 -0.02685095 4.9581884 -0.04676547 7.4375 -0.0625 C8.14455078 -0.07087891 8.85160156 -0.07925781 9.58007812 -0.08789062 C11.38693559 -0.09653588 13.19387603 -0.05220011 15 0 C16.84114511 1.84114511 16.12501958 4.82353282 16.12597656 7.28881836 C16.1278447 7.94589783 16.12971283 8.60297729 16.13163757 9.27996826 C16.13565175 10.71284021 16.13771734 12.1457186 16.13809967 13.57859612 C16.14151252 16.63455025 16.1628836 19.69029115 16.18333054 22.746171 C16.22131284 28.43765897 16.25262853 34.12892758 16.25048828 39.82055664 C16.24969635 43.77723063 16.27327774 47.73313496 16.3123703 51.68960762 C16.32276855 53.19128512 16.32440022 54.69305216 16.31671906 56.19474602 C16.27243777 65.82156748 16.94231037 73.9395165 23.33624268 81.60118103 C27.86324716 85.88021949 33.58712511 87.83255736 39.70703125 88.1328125 C47.09336693 87.78157416 53.46848448 85.80781991 58.59765625 80.27734375 C65.0720304 71.084865 64.32167982 58.89247558 64.4140625 48.14453125 C64.43281974 46.74776627 64.45239635 45.35101207 64.4727478 43.95426941 C64.52359483 40.31633938 64.56347088 36.6783728 64.60089111 33.0402832 C64.64123207 29.31257441 64.69218544 25.58501137 64.7421875 21.85742188 C64.83838338 14.57171537 64.92296409 7.285937 65 0 C67.47923801 -0.02685095 69.9581884 -0.04676547 72.4375 -0.0625 C73.14455078 -0.07087891 73.85160156 -0.07925781 74.58007812 -0.08789062 C76.38693559 -0.09653588 78.19387603 -0.05220011 80 0 C81.82648784 1.82648784 81.1468102 4.71190261 81.16113281 7.1652832 C81.16858017 8.13145317 81.16858017 8.13145317 81.17617798 9.11714172 C81.19085234 11.26169898 81.19761572 13.40618189 81.203125 15.55078125 C81.20887894 17.04518129 81.21463665 18.53958131 81.22039795 20.03398132 C81.2309275 23.17898909 81.23675511 26.32397121 81.24023438 29.46899414 C81.24567642 33.46879421 81.2696025 37.46824643 81.29820633 41.46793842 C81.31699503 44.56264672 81.32204718 47.65727467 81.32357025 50.75203514 C81.32656874 52.22420306 81.33450061 53.69637053 81.34775543 55.16848183 C81.46521976 69.23672504 80.00052562 82.1908191 70.18359375 93 C59.6260535 102.89636097 48.84878971 104.48941029 35.00390625 104.26953125 C24.31131305 103.86629952 16.54547572 99.46604966 9 92 C0.00665729 81.29906058 -0.42670772 70.24231151 -0.29296875 56.93359375 C-0.28736446 55.28736256 -0.2830983 53.64112632 -0.28010559 51.99488831 C-0.26872229 47.68925853 -0.23931229 43.38393862 -0.20599365 39.07843018 C-0.17515125 34.6740742 -0.16157015 30.26966752 -0.14648438 25.86523438 C-0.11443543 17.24334834 -0.06331929 8.62171286 0 0 Z " fill="#FBD11A" transform="translate(676,1161)"/>
<path d="M0 0 C1.4540625 0.0309375 1.4540625 0.0309375 2.9375 0.0625 C8.71295369 11.42948814 14.18363583 22.91196602 19.5 34.5 C20.28200752 36.19960762 21.06415511 37.89915079 21.84643555 39.59863281 C27.62557124 52.1635537 33.36460065 64.7467825 39.07836914 77.34155273 C39.36719467 77.97790146 39.6560202 78.61425018 39.95359802 79.2698822 C40.77397018 81.08142103 41.58946123 82.89516787 42.40478516 84.70898438 C43.40659859 86.90091005 44.43653722 89.08025478 45.49755859 91.24414062 C45.96629395 92.21029297 46.4350293 93.17644531 46.91796875 94.171875 C47.33328857 95.00170898 47.7486084 95.83154297 48.17651367 96.68652344 C48.9375 99.0625 48.9375 99.0625 47.9375 104.0625 C42.9875 104.0625 38.0375 104.0625 32.9375 104.0625 C31.43040789 100.96159818 29.93162108 97.85714369 28.4375 94.75 C27.79361328 93.42838867 27.79361328 93.42838867 27.13671875 92.08007812 C26.73066406 91.23251953 26.32460937 90.38496094 25.90625 89.51171875 C25.52919922 88.73143311 25.15214844 87.95114746 24.76367188 87.1472168 C23.9375 85.0625 23.9375 85.0625 23.9375 82.0625 C8.0975 82.0625 -7.7425 82.0625 -24.0625 82.0625 C-24.7225 84.0425 -25.3825 86.0225 -26.0625 88.0625 C-26.67830592 89.43954086 -27.32440389 90.80366573 -28.0078125 92.1484375 C-28.36230469 92.85097656 -28.71679688 93.55351563 -29.08203125 94.27734375 C-29.44683594 94.99019531 -29.81164063 95.70304687 -30.1875 96.4375 C-30.56003906 97.17355469 -30.93257812 97.90960937 -31.31640625 98.66796875 C-32.2281122 100.46800358 -33.14479932 102.26551402 -34.0625 104.0625 C-39.0125 104.0625 -43.9625 104.0625 -49.0625 104.0625 C-49.0625 98.19775025 -48.54632337 96.25436805 -46.08984375 91.19921875 C-45.77562973 90.54309097 -45.46141571 89.8869632 -45.13768005 89.21095276 C-44.45778006 87.79410338 -43.77268316 86.37973844 -43.08294678 84.96765137 C-41.22105306 81.15487752 -39.39731249 77.323816 -37.56640625 73.49609375 C-37.18895264 72.70997711 -36.81149902 71.92386047 -36.42260742 71.11392212 C-32.6445128 63.23221279 -29.03076425 55.27972676 -25.4375 47.3125 C-20.71948009 36.8774441 -15.9622196 26.46190751 -11.1272583 16.08044434 C-10.50470833 14.74364189 -9.88291286 13.40648779 -9.26190186 12.06896973 C-8.40873182 10.23238177 -7.55211523 8.39739605 -6.6953125 6.5625 C-6.20949707 5.5209375 -5.72368164 4.479375 -5.22314453 3.40625 C-3.57244532 0.07290705 -3.57244532 0.07290705 0 0 Z M-1.0625 30.0625 C-3.32461591 35.13372976 -5.58490681 40.20576739 -7.84350586 45.27856445 C-8.61220928 47.00437422 -9.38141207 48.72996164 -10.15112305 50.45532227 C-11.25700959 52.93447604 -12.36110137 55.41442227 -13.46484375 57.89453125 C-13.98207253 59.05248955 -13.98207253 59.05248955 -14.50975037 60.23384094 C-15.80750202 63.1535526 -17.05142789 66.02928367 -18.0625 69.0625 C-6.5125 69.0625 5.0375 69.0625 16.9375 69.0625 C14.40752914 61.47258741 11.53698084 54.315106 8.2668457 47.04833984 C7.36588135 45.04219583 6.47664284 43.03111035 5.58789062 41.01953125 C5.01632198 39.74187547 4.44408132 38.46452006 3.87109375 37.1875 C3.35603271 36.03507812 2.84097168 34.88265625 2.31030273 33.6953125 C1.20782029 30.95335905 1.20782029 30.95335905 -1.0625 30.0625 Z " fill="#FBD11A" transform="translate(2180.0625,1159.9375)"/>
<path d="M0 0 C10.539375 -0.020625 21.07875 -0.04125 31.9375 -0.0625 C36.93571899 -0.07615601 36.93571899 -0.07615601 42.03491211 -0.09008789 C44.65738891 -0.09300675 47.27986616 -0.09555538 49.90234375 -0.09765625 C50.58808975 -0.10026962 51.27383575 -0.102883 51.98036194 -0.10557556 C53.99072139 -0.11285634 56.00110198 -0.1133384 58.01147461 -0.11352539 C59.14620712 -0.115746 60.28093964 -0.11796661 61.45005798 -0.12025452 C64 0 64 0 65 1 C65.09873816 2.99799572 65.12971799 4.99957158 65.125 7 C65.12886719 8.6396875 65.12886719 8.6396875 65.1328125 10.3125 C65 13 65 13 64 14 C62.49581261 14.09311889 60.98728644 14.11746028 59.48022461 14.11352539 C58.03884377 14.11341209 58.03884377 14.11341209 56.56834412 14.11329651 C55.523564 14.10813522 54.47878387 14.10297394 53.40234375 14.09765625 C52.33834854 14.0962413 51.27435333 14.09482635 50.17811584 14.09336853 C46.76454917 14.08775064 43.351047 14.07519511 39.9375 14.0625 C37.62955824 14.05748731 35.32161545 14.052924 33.01367188 14.04882812 C27.34240279 14.03862433 21.67127399 14.01905243 16 14 C16 23.9 16 33.8 16 44 C18.94808594 43.98839844 21.89617188 43.97679687 24.93359375 43.96484375 C27.77644747 43.95705384 30.61930002 43.9509767 33.4621582 43.94506836 C35.44393441 43.94002733 37.42570689 43.93319462 39.4074707 43.92456055 C42.24952109 43.91248485 45.09152247 43.90676955 47.93359375 43.90234375 C48.82525742 43.89718246 49.71692108 43.89202118 50.63560486 43.88670349 C52.75740601 43.88650823 54.8791078 43.9378997 57 44 C58 45 58 45 58.1328125 47.6875 C58.13023437 48.780625 58.12765625 49.87375 58.125 51 C58.12886719 52.6396875 58.12886719 52.6396875 58.1328125 54.3125 C58 57 58 57 57 58 C53.97022196 58.08871273 50.96332978 58.1151935 47.93359375 58.09765625 C47.02497086 58.0962413 46.11634796 58.09482635 45.18019104 58.09336853 C42.26592779 58.08775193 39.35174019 58.07519665 36.4375 58.0625 C34.46679798 58.05748714 32.49609476 58.05292386 30.52539062 58.04882812 C25.68354086 58.03862617 20.84185553 58.01905409 16 58 C16 68.23 16 78.46 16 89 C21.18009766 88.98259766 21.18009766 88.98259766 26.46484375 88.96484375 C29.79418852 88.95705431 33.12353229 88.95097691 36.45288086 88.94506836 C38.77417451 88.94002667 41.09546497 88.93319349 43.41674805 88.92456055 C46.74528795 88.91248775 50.07378602 88.90677021 53.40234375 88.90234375 C54.44712387 88.89718246 55.49190399 88.89202118 56.56834412 88.88670349 C57.52926468 88.88662796 58.49018524 88.88655243 59.48022461 88.88647461 C60.33071884 88.884254 61.18121307 88.88203339 62.05747986 88.87974548 C64 89 64 89 65 90 C65.09873816 91.99799572 65.12971799 93.99957158 65.125 96 C65.12886719 97.6396875 65.12886719 97.6396875 65.1328125 99.3125 C65 102 65 102 64 103 C62.0056827 103.09405142 60.00800457 103.11743249 58.01147461 103.11352539 C56.06259338 103.11334412 56.06259338 103.11334412 54.07434082 103.11315918 C52.68367465 103.1081227 51.29300894 103.10295606 49.90234375 103.09765625 C48.64522583 103.09664917 47.38810791 103.09564209 46.09289551 103.09460449 C41.37442113 103.08935275 36.65595969 103.07539165 31.9375 103.0625 C21.398125 103.041875 10.85875 103.02125 0 103 C0 69.01 0 35.02 0 0 Z " fill="#FBD11A" transform="translate(2353,1161)"/>
<path d="M0 0 C10.539375 -0.020625 21.07875 -0.04125 31.9375 -0.0625 C36.93571899 -0.07615601 36.93571899 -0.07615601 42.03491211 -0.09008789 C44.65738891 -0.09300675 47.27986616 -0.09555538 49.90234375 -0.09765625 C50.58808975 -0.10026962 51.27383575 -0.102883 51.98036194 -0.10557556 C53.99072139 -0.11285634 56.00110198 -0.1133384 58.01147461 -0.11352539 C59.14620712 -0.115746 60.28093964 -0.11796661 61.45005798 -0.12025452 C64 0 64 0 65 1 C65.09873816 2.99799572 65.12971799 4.99957158 65.125 7 C65.12886719 8.6396875 65.12886719 8.6396875 65.1328125 10.3125 C65 13 65 13 64 14 C62.49581261 14.09311889 60.98728644 14.11746028 59.48022461 14.11352539 C58.03884377 14.11341209 58.03884377 14.11341209 56.56834412 14.11329651 C55.523564 14.10813522 54.47878387 14.10297394 53.40234375 14.09765625 C52.33834854 14.0962413 51.27435333 14.09482635 50.17811584 14.09336853 C46.76454917 14.08775064 43.351047 14.07519511 39.9375 14.0625 C37.62955824 14.05748731 35.32161545 14.052924 33.01367188 14.04882812 C27.34240279 14.03862433 21.67127399 14.01905243 16 14 C16 23.9 16 33.8 16 44 C18.94808594 43.98839844 21.89617187 43.97679687 24.93359375 43.96484375 C27.77644747 43.95705384 30.61930002 43.9509767 33.4621582 43.94506836 C35.44393441 43.94002733 37.42570689 43.93319462 39.4074707 43.92456055 C42.24952109 43.91248485 45.09152247 43.90676955 47.93359375 43.90234375 C48.82525742 43.89718246 49.71692108 43.89202118 50.63560486 43.88670349 C52.75740601 43.88650823 54.8791078 43.9378997 57 44 C58 45 58 45 58.1328125 47.6875 C58.13023438 48.780625 58.12765625 49.87375 58.125 51 C58.12886719 52.6396875 58.12886719 52.6396875 58.1328125 54.3125 C58 57 58 57 57 58 C53.97022196 58.08871273 50.96332978 58.1151935 47.93359375 58.09765625 C47.02497086 58.0962413 46.11634796 58.09482635 45.18019104 58.09336853 C42.26592779 58.08775193 39.35174019 58.07519665 36.4375 58.0625 C34.46679798 58.05748714 32.49609476 58.05292386 30.52539062 58.04882812 C25.68354086 58.03862617 20.84185553 58.01905409 16 58 C16 68.23 16 78.46 16 89 C21.18009766 88.98259766 21.18009766 88.98259766 26.46484375 88.96484375 C29.79418852 88.95705431 33.12353229 88.95097691 36.45288086 88.94506836 C38.77417451 88.94002667 41.09546497 88.93319349 43.41674805 88.92456055 C46.74528795 88.91248775 50.07378602 88.90677021 53.40234375 88.90234375 C54.44712387 88.89718246 55.49190399 88.89202118 56.56834412 88.88670349 C57.52926468 88.88662796 58.49018524 88.88655243 59.48022461 88.88647461 C60.33071884 88.884254 61.18121307 88.88203339 62.05747986 88.87974548 C64 89 64 89 65 90 C65.09873816 91.99799572 65.12971799 93.99957158 65.125 96 C65.12886719 97.6396875 65.12886719 97.6396875 65.1328125 99.3125 C65 102 65 102 64 103 C62.0056827 103.09405142 60.00800457 103.11743249 58.01147461 103.11352539 C56.06259338 103.11334412 56.06259338 103.11334412 54.07434082 103.11315918 C52.68367465 103.1081227 51.29300894 103.10295606 49.90234375 103.09765625 C48.64522583 103.09664917 47.38810791 103.09564209 46.09289551 103.09460449 C41.37442113 103.08935275 36.65595969 103.07539165 31.9375 103.0625 C21.398125 103.041875 10.85875 103.02125 0 103 C0 69.01 0 35.02 0 0 Z " fill="#FBD11A" transform="translate(1300,1161)"/>
<path d="M0 0 C10.539375 -0.020625 21.07875 -0.04125 31.9375 -0.0625 C36.93571899 -0.07615601 36.93571899 -0.07615601 42.03491211 -0.09008789 C44.65738891 -0.09300675 47.27986616 -0.09555538 49.90234375 -0.09765625 C50.58808975 -0.10026962 51.27383575 -0.102883 51.98036194 -0.10557556 C53.99072139 -0.11285634 56.00110198 -0.1133384 58.01147461 -0.11352539 C59.14620712 -0.115746 60.28093964 -0.11796661 61.45005798 -0.12025452 C64 0 64 0 65 1 C65.09873816 2.99799572 65.12971799 4.99957158 65.125 7 C65.12886719 8.6396875 65.12886719 8.6396875 65.1328125 10.3125 C65 13 65 13 64 14 C62.49581261 14.09311889 60.98728644 14.11746028 59.48022461 14.11352539 C58.03884377 14.11341209 58.03884377 14.11341209 56.56834412 14.11329651 C55.523564 14.10813522 54.47878387 14.10297394 53.40234375 14.09765625 C52.33834854 14.0962413 51.27435333 14.09482635 50.17811584 14.09336853 C46.76454917 14.08775064 43.351047 14.07519511 39.9375 14.0625 C37.62955824 14.05748731 35.32161545 14.052924 33.01367188 14.04882812 C27.34240279 14.03862433 21.67127399 14.01905243 16 14 C16 23.9 16 33.8 16 44 C18.94808594 43.98839844 21.89617187 43.97679687 24.93359375 43.96484375 C27.77644747 43.95705384 30.61930002 43.9509767 33.4621582 43.94506836 C35.44393441 43.94002733 37.42570689 43.93319462 39.4074707 43.92456055 C42.24952109 43.91248485 45.09152247 43.90676955 47.93359375 43.90234375 C48.82525742 43.89718246 49.71692108 43.89202118 50.63560486 43.88670349 C52.75740601 43.88650823 54.8791078 43.9378997 57 44 C58 45 58 45 58.1328125 47.6875 C58.13023438 48.780625 58.12765625 49.87375 58.125 51 C58.12886719 52.6396875 58.12886719 52.6396875 58.1328125 54.3125 C58 57 58 57 57 58 C53.97022196 58.08871273 50.96332978 58.1151935 47.93359375 58.09765625 C47.02497086 58.0962413 46.11634796 58.09482635 45.18019104 58.09336853 C42.26592779 58.08775193 39.35174019 58.07519665 36.4375 58.0625 C34.46679798 58.05748714 32.49609476 58.05292386 30.52539062 58.04882812 C25.68354086 58.03862617 20.84185553 58.01905409 16 58 C16 68.23 16 78.46 16 89 C21.18009766 88.98259766 21.18009766 88.98259766 26.46484375 88.96484375 C29.79418852 88.95705431 33.12353229 88.95097691 36.45288086 88.94506836 C38.77417451 88.94002667 41.09546497 88.93319349 43.41674805 88.92456055 C46.74528795 88.91248775 50.07378602 88.90677021 53.40234375 88.90234375 C54.44712387 88.89718246 55.49190399 88.89202118 56.56834412 88.88670349 C57.52926468 88.88662796 58.49018524 88.88655243 59.48022461 88.88647461 C60.33071884 88.884254 61.18121307 88.88203339 62.05747986 88.87974548 C64 89 64 89 65 90 C65.09873816 91.99799572 65.12971799 93.99957158 65.125 96 C65.12886719 97.6396875 65.12886719 97.6396875 65.1328125 99.3125 C65 102 65 102 64 103 C62.0056827 103.09405142 60.00800457 103.11743249 58.01147461 103.11352539 C56.06259338 103.11334412 56.06259338 103.11334412 54.07434082 103.11315918 C52.68367465 103.1081227 51.29300894 103.10295606 49.90234375 103.09765625 C48.64522583 103.09664917 47.38810791 103.09564209 46.09289551 103.09460449 C41.37442113 103.08935275 36.65595969 103.07539165 31.9375 103.0625 C21.398125 103.041875 10.85875 103.02125 0 103 C0 69.01 0 35.02 0 0 Z " fill="#FBD11A" transform="translate(1207,1161)"/>
<path d="M0 0 C0.96526611 0.00829834 1.93053223 0.01659668 2.92504883 0.02514648 C15.67764335 0.32691314 26.24632759 4.55007054 35.92578125 13.01171875 C37.125 14.4375 37.125 14.4375 37.25 16.6875 C35.58876179 20.74830451 32.78760158 23.99576561 29.125 26.4375 C25.71930904 26.2182201 23.30244661 24.3973266 20.5 22.5625 C11.6642106 17.17292758 2.85336641 15.00852624 -7.41015625 16.90625 C-16.52587397 19.27323698 -24.74844596 24.41332846 -29.875 32.4375 C-35.4694332 43.29282296 -37.25759787 52.60673898 -33.875 64.4375 C-29.74269733 74.86592929 -23.92131041 81.42189841 -13.875 86.4375 C-5.61232751 89.78815616 5.27075686 89.95418953 13.625 86.75 C17.4373457 84.96577087 20.93116233 82.7632418 24.3359375 80.29296875 C26.125 79.4375 26.125 79.4375 28.1171875 79.62890625 C30.38789378 80.54337356 31.9910163 81.6255648 33.875 83.1875 C34.48859375 83.67734375 35.1021875 84.1671875 35.734375 84.671875 C37.125 86.4375 37.125 86.4375 37.59375 88.890625 C36.78307892 93.2952712 33.56110331 94.92047913 30.1328125 97.50390625 C16.70800776 106.13413787 0.83640494 107.65219528 -14.67578125 104.71875 C-17.53567695 103.79883543 -20.17190395 102.7439248 -22.875 101.4375 C-23.65488281 101.086875 -24.43476563 100.73625 -25.23828125 100.375 C-38.8910927 93.58396425 -47.77602667 81.59468227 -52.5625 67.3984375 C-56.11302133 54.23192089 -54.35349033 39.97409395 -48.3125 27.875 C-40.23439962 14.16790546 -28.76929873 5.33604062 -13.53417969 1.01318359 C-9.02150129 0.03623761 -4.60296262 -0.05129212 0 0 Z " fill="#FBD11A" transform="translate(2081.875,1159.5625)"/>
<path d="M0 0 C0.96526611 0.00829834 1.93053223 0.01659668 2.92504883 0.02514648 C15.67764335 0.32691314 26.24632759 4.55007054 35.92578125 13.01171875 C37.125 14.4375 37.125 14.4375 37.25 16.6875 C35.58876179 20.74830451 32.78760158 23.99576561 29.125 26.4375 C25.71930904 26.2182201 23.30244661 24.3973266 20.5 22.5625 C11.6642106 17.17292758 2.85336641 15.00852624 -7.41015625 16.90625 C-16.52587397 19.27323698 -24.74844596 24.41332846 -29.875 32.4375 C-35.4694332 43.29282296 -37.25759787 52.60673898 -33.875 64.4375 C-29.74269733 74.86592929 -23.92131041 81.42189841 -13.875 86.4375 C-5.61232751 89.78815616 5.27075686 89.95418953 13.625 86.75 C17.4373457 84.96577087 20.93116233 82.7632418 24.3359375 80.29296875 C26.125 79.4375 26.125 79.4375 28.1171875 79.62890625 C30.38789378 80.54337356 31.9910163 81.6255648 33.875 83.1875 C34.48859375 83.67734375 35.1021875 84.1671875 35.734375 84.671875 C37.125 86.4375 37.125 86.4375 37.59375 88.890625 C36.78307892 93.2952712 33.56110331 94.92047913 30.1328125 97.50390625 C16.70800776 106.13413787 0.83640494 107.65219528 -14.67578125 104.71875 C-17.53567695 103.79883543 -20.17190395 102.7439248 -22.875 101.4375 C-23.65488281 101.086875 -24.43476562 100.73625 -25.23828125 100.375 C-38.8910927 93.58396425 -47.77602667 81.59468227 -52.5625 67.3984375 C-56.11302133 54.23192089 -54.35349033 39.97409395 -48.3125 27.875 C-40.23439962 14.16790546 -28.76929873 5.33604062 -13.53417969 1.01318359 C-9.02150129 0.03623761 -4.60296262 -0.05129212 0 0 Z " fill="#FBD11A" transform="translate(1039.875,1159.5625)"/>
<path d="M0 0 C0.721875 0.556875 1.44375 1.11375 2.1875 1.6875 C1.82305403 7.76159953 0.65863524 10.71315757 -3.8125 14.6875 C-8.83052032 15.03759444 -13.20486355 12.13608209 -17.54296875 9.84375 C-22.30030962 7.4200445 -26.57000409 7.06178275 -31.8125 7.6875 C-36.29393228 9.22703966 -39.15908599 10.70737898 -41.8125 14.6875 C-42.20340193 16.76403123 -42.20340193 16.76403123 -42.1875 19 C-42.23003906 20.10794922 -42.23003906 20.10794922 -42.2734375 21.23828125 C-41.59511256 24.84260106 -40.13916728 26.86252877 -37.8125 29.6875 C-35.38978656 31.17331596 -33.19253284 32.35239299 -30.625 33.5 C-29.19452897 34.18064741 -27.7648687 34.86300083 -26.3359375 35.546875 C-25.59569336 35.89556641 -24.85544922 36.24425781 -24.09277344 36.60351562 C1.02366264 48.5432347 1.02366264 48.5432347 5.5234375 59.96875 C7.33198579 67.37315947 7.68835227 75.75699924 4.1875 82.6875 C-1.54897954 91.21991074 -9.22673722 95.98508459 -19.1796875 98.21875 C-33.44799172 100.27712831 -46.85878045 96.01977184 -58.1953125 87.56640625 C-59.8125 85.6875 -59.8125 85.6875 -60.1953125 83.19921875 C-59.78367475 80.49837108 -59.16823322 79.12361872 -57.5625 76.9375 C-56.93601562 76.04804687 -56.93601562 76.04804687 -56.296875 75.140625 C-54.41408051 73.29746828 -53.45610731 72.80264805 -50.8125 72.6875 C-48.33203125 74.015625 -48.33203125 74.015625 -45.625 75.9375 C-38.13186834 80.92297007 -30.95750957 83.97916802 -21.8125 82.6875 C-18.10682495 81.24640415 -15.36754946 79.72922555 -12.8125 76.6875 C-12.0892587 74.66495166 -12.0892587 74.66495166 -11.875 72.4375 C-11.76285156 71.71046875 -11.65070313 70.9834375 -11.53515625 70.234375 C-11.94443288 66.47594732 -13.52414786 63.61998413 -15.8125 60.6875 C-18.68125677 58.438355 -18.68125677 58.438355 -22.0625 56.75 C-22.96863037 56.25705444 -22.96863037 56.25705444 -23.89306641 55.75415039 C-27.90733732 53.59628752 -32.00435032 51.61615632 -36.10742188 49.63427734 C-45.65568296 45.00135348 -53.06719016 40.55774447 -57.8125 30.6875 C-60.23265183 23.42704452 -59.98143304 14.07522975 -56.75 7.125 C-52.79938434 0.47075072 -47.3566035 -3.97283634 -40.0703125 -6.61328125 C-25.93821226 -9.64642986 -12.20461263 -7.86394209 0 0 Z " fill="#FBD11A" transform="translate(1733.8125,1167.3125)"/>
<path d="M0 0 C0.721875 0.556875 1.44375 1.11375 2.1875 1.6875 C1.82305403 7.76159953 0.65863524 10.71315757 -3.8125 14.6875 C-8.83052032 15.03759444 -13.20486355 12.13608209 -17.54296875 9.84375 C-22.30030962 7.4200445 -26.57000409 7.06178275 -31.8125 7.6875 C-36.29393228 9.22703966 -39.15908599 10.70737898 -41.8125 14.6875 C-42.20340193 16.76403123 -42.20340193 16.76403123 -42.1875 19 C-42.23003906 20.10794922 -42.23003906 20.10794922 -42.2734375 21.23828125 C-41.59511256 24.84260106 -40.13916728 26.86252877 -37.8125 29.6875 C-35.38978656 31.17331596 -33.19253284 32.35239299 -30.625 33.5 C-29.19452897 34.18064741 -27.7648687 34.86300083 -26.3359375 35.546875 C-25.59569336 35.89556641 -24.85544922 36.24425781 -24.09277344 36.60351562 C1.02366264 48.5432347 1.02366264 48.5432347 5.5234375 59.96875 C7.33198579 67.37315947 7.68835227 75.75699924 4.1875 82.6875 C-1.54897954 91.21991074 -9.22673722 95.98508459 -19.1796875 98.21875 C-33.44799172 100.27712831 -46.85878045 96.01977184 -58.1953125 87.56640625 C-59.8125 85.6875 -59.8125 85.6875 -60.1953125 83.19921875 C-59.78367475 80.49837108 -59.16823322 79.12361872 -57.5625 76.9375 C-56.93601562 76.04804687 -56.93601562 76.04804687 -56.296875 75.140625 C-54.41408051 73.29746828 -53.45610731 72.80264805 -50.8125 72.6875 C-48.33203125 74.015625 -48.33203125 74.015625 -45.625 75.9375 C-38.13186834 80.92297007 -30.95750957 83.97916802 -21.8125 82.6875 C-18.10682495 81.24640415 -15.36754946 79.72922555 -12.8125 76.6875 C-12.0892587 74.66495166 -12.0892587 74.66495166 -11.875 72.4375 C-11.76285156 71.71046875 -11.65070312 70.9834375 -11.53515625 70.234375 C-11.94443288 66.47594732 -13.52414786 63.61998413 -15.8125 60.6875 C-18.68125677 58.438355 -18.68125677 58.438355 -22.0625 56.75 C-22.96863037 56.25705444 -22.96863037 56.25705444 -23.89306641 55.75415039 C-27.90733732 53.59628752 -32.00435032 51.61615632 -36.10742188 49.63427734 C-45.65568296 45.00135348 -53.06719016 40.55774447 -57.8125 30.6875 C-60.23265183 23.42704452 -59.98143304 14.07522975 -56.75 7.125 C-52.79938434 0.47075072 -47.3566035 -3.97283634 -40.0703125 -6.61328125 C-25.93821226 -9.64642986 -12.20461263 -7.86394209 0 0 Z " fill="#FBD11A" transform="translate(961.8125,1167.3125)"/>
<path d="M0 0 C0.721875 0.556875 1.44375 1.11375 2.1875 1.6875 C1.82305403 7.76159953 0.65863524 10.71315757 -3.8125 14.6875 C-8.83052032 15.03759444 -13.20486355 12.13608209 -17.54296875 9.84375 C-22.30030962 7.4200445 -26.57000409 7.06178275 -31.8125 7.6875 C-36.29393228 9.22703966 -39.15908599 10.70737898 -41.8125 14.6875 C-42.20340193 16.76403123 -42.20340193 16.76403123 -42.1875 19 C-42.23003906 20.10794922 -42.23003906 20.10794922 -42.2734375 21.23828125 C-41.59511256 24.84260106 -40.13916728 26.86252877 -37.8125 29.6875 C-35.38978656 31.17331596 -33.19253284 32.35239299 -30.625 33.5 C-29.19452897 34.18064741 -27.7648687 34.86300083 -26.3359375 35.546875 C-25.59569336 35.89556641 -24.85544922 36.24425781 -24.09277344 36.60351562 C1.02366264 48.5432347 1.02366264 48.5432347 5.5234375 59.96875 C7.33198579 67.37315947 7.68835227 75.75699924 4.1875 82.6875 C-1.54897954 91.21991074 -9.22673722 95.98508459 -19.1796875 98.21875 C-33.44799172 100.27712831 -46.85878045 96.01977184 -58.1953125 87.56640625 C-59.8125 85.6875 -59.8125 85.6875 -60.1953125 83.19921875 C-59.78367475 80.49837108 -59.16823322 79.12361872 -57.5625 76.9375 C-56.93601562 76.04804687 -56.93601562 76.04804687 -56.296875 75.140625 C-54.41408051 73.29746828 -53.45610731 72.80264805 -50.8125 72.6875 C-48.33203125 74.015625 -48.33203125 74.015625 -45.625 75.9375 C-38.13186834 80.92297007 -30.95750957 83.97916802 -21.8125 82.6875 C-18.10682495 81.24640415 -15.36754946 79.72922555 -12.8125 76.6875 C-12.0892587 74.66495166 -12.0892587 74.66495166 -11.875 72.4375 C-11.76285156 71.71046875 -11.65070312 70.9834375 -11.53515625 70.234375 C-11.94443288 66.47594732 -13.52414786 63.61998413 -15.8125 60.6875 C-18.68125677 58.438355 -18.68125677 58.438355 -22.0625 56.75 C-22.96863037 56.25705444 -22.96863037 56.25705444 -23.89306641 55.75415039 C-27.90733732 53.59628752 -32.00435032 51.61615632 -36.10742188 49.63427734 C-45.65568296 45.00135348 -53.06719016 40.55774447 -57.8125 30.6875 C-60.23265183 23.42704452 -59.98143304 14.07522975 -56.75 7.125 C-52.79938434 0.47075072 -47.3566035 -3.97283634 -40.0703125 -6.61328125 C-25.93821226 -9.64642986 -12.20461263 -7.86394209 0 0 Z " fill="#FBD11A" transform="translate(644.8125,1167.3125)"/>
<path d="M0 0 C0.52207031 0.45117188 1.04414063 0.90234375 1.58203125 1.3671875 C1.58203125 2.0271875 1.58203125 2.6871875 1.58203125 3.3671875 C2.24203125 3.3671875 2.90203125 3.3671875 3.58203125 3.3671875 C11.64580721 12.34459325 15.40616192 23.07407103 14.9609375 35.06640625 C13.4419175 48.29910621 7.72528667 57.46644453 -2.38671875 65.8671875 C-11.20954795 72.38250752 -21.58760035 74.48460646 -32.41796875 73.3671875 C-44.16994274 71.10278276 -54.36858217 65.46972072 -61.20703125 55.44921875 C-67.692422 44.29853079 -69.62860741 31.60280763 -66.35546875 18.9921875 C-62.04608592 7.01049224 -52.99777768 -1.23038553 -41.8125 -6.6875 C-27.45037059 -12.35737817 -12.23786228 -8.27288063 0 0 Z M-51.10546875 10.9296875 C-56.75283331 17.79810385 -59.17131078 25.75203515 -58.8046875 34.6015625 C-57.60652895 43.17021154 -54.12074902 51.34844799 -47.484375 57.01953125 C-39.64870865 62.73216501 -30.92388275 65.36342272 -21.25 64.0625 C-12.17575607 61.83461666 -4.47840487 57.31122408 0.58203125 49.3671875 C5.22679657 40.6760622 6.65507707 32.44600898 4.20703125 22.8671875 C1.13508608 13.94592208 -4.35704516 7.64600461 -12.73046875 3.3046875 C-26.01693248 -2.70738385 -40.98119512 0.39700369 -51.10546875 10.9296875 Z " fill="#FFFFFF" transform="translate(2814.41796875,919.6328125)"/>
<path d="M0 0 C4.95 0 9.9 0 15 0 C16.95151685 1.95151685 16.12690802 4.92508631 16.13552856 7.52290344 C16.13350433 8.46216171 16.1314801 9.40141998 16.12939453 10.36914062 C16.13114685 11.35279099 16.13289917 12.33644135 16.13470459 13.34989929 C16.13912505 16.61870053 16.13618443 19.88744816 16.1328125 23.15625 C16.13348548 25.41687022 16.13445546 27.67749038 16.13571167 29.93811035 C16.13718891 34.68286832 16.13503326 39.42760749 16.13037109 44.17236328 C16.1246738 50.26938624 16.12795266 56.36636519 16.13394356 62.46338654 C16.13754848 67.13348729 16.1364109 71.80357753 16.13381577 76.47367859 C16.1331463 78.72246811 16.13397558 80.97125857 16.13629532 83.220047 C16.13882071 86.35701038 16.13498285 89.49390141 16.12939453 92.63085938 C16.13141876 93.57011765 16.13344299 94.50937592 16.13552856 95.47709656 C16.11426225 101.88573775 16.11426225 101.88573775 15 103 C10.05 103 5.1 103 0 103 C0 69.01 0 35.02 0 0 Z " fill="#FBD11A" transform="translate(1866,1161)"/>
<path d="M0 0 C3.96 0 7.92 0 12 0 C12 8.25 12 16.5 12 25 C20.18252797 24.9604086 20.18252797 24.9604086 28.36499023 24.90991211 C29.37762939 24.90741455 30.39026855 24.90491699 31.43359375 24.90234375 C32.47572021 24.89710693 33.51784668 24.89187012 34.59155273 24.88647461 C37 25 37 25 38 26 C38.09823937 27.66429051 38.12973631 29.33281931 38.125 31 C38.12886719 32.36125 38.12886719 32.36125 38.1328125 33.75 C38 36 38 36 37 37 C35.14630389 37.08737645 33.28932459 37.10698153 31.43359375 37.09765625 C30.42095459 37.09515869 29.40831543 37.09266113 28.36499023 37.09008789 C27.06891846 37.08098389 25.77284668 37.07187988 24.4375 37.0625 C20.333125 37.041875 16.22875 37.02125 12 37 C12 45.25 12 53.5 12 62 C8.04 62 4.08 62 0 62 C0 53.75 0 45.5 0 37 C-8.18252797 37.0395914 -8.18252797 37.0395914 -16.36499023 37.09008789 C-17.88394897 37.09383423 -17.88394897 37.09383423 -19.43359375 37.09765625 C-20.99678345 37.10551147 -20.99678345 37.10551147 -22.59155273 37.11352539 C-25 37 -25 37 -26 36 C-26.09823937 34.33570949 -26.12973631 32.66718069 -26.125 31 C-26.12757812 30.0925 -26.13015625 29.185 -26.1328125 28.25 C-26 26 -26 26 -25 25 C-23.14630389 24.91262355 -21.28932459 24.89301847 -19.43359375 24.90234375 C-18.42095459 24.90484131 -17.40831543 24.90733887 -16.36499023 24.90991211 C-15.06891846 24.91901611 -13.77284668 24.92812012 -12.4375 24.9375 C-6.2809375 24.9684375 -6.2809375 24.9684375 0 25 C0 16.75 0 8.5 0 0 Z " fill="#FBD11A" transform="translate(1574,1182)"/>
<path d="M0 0 C0.90556641 0.00322266 1.81113281 0.00644531 2.74414062 0.00976562 C3.63037109 -0.00634766 4.51660156 -0.02246094 5.4296875 -0.0390625 C12.12811582 -0.04402063 17.03133544 0.86931547 22.36914062 5.19726562 C25.28479735 8.86883335 26.28917043 11.66693533 25.86914062 16.32226562 C25.13028703 20.88425698 23.66473576 24.07218796 19.95117188 26.95898438 C19.01337891 27.63380859 19.01337891 27.63380859 18.05664062 28.32226562 C18.42917969 28.98613281 18.80171875 29.65 19.18554688 30.33398438 C19.65863281 31.21699219 20.13171875 32.1 20.61914062 33.00976562 C21.09480469 33.87988281 21.57046875 34.75 22.06054688 35.64648438 C23.19932431 38.70555316 22.98382752 40.24089602 22.05664062 43.32226562 C16.09960938 43.71289062 16.09960938 43.71289062 14.05664062 43.32226562 C11.44450983 40.60966826 10.19948263 37.55867917 8.86914062 34.07226562 C8.52496094 33.18023438 8.18078125 32.28820312 7.82617188 31.36914062 C7.57222656 30.69367187 7.31828125 30.01820313 7.05664062 29.32226562 C5.40664062 29.32226562 3.75664062 29.32226562 2.05664062 29.32226562 C2.07984375 30.1653125 2.10304688 31.00835938 2.12695312 31.87695312 C2.15402344 33.52050781 2.15402344 33.52050781 2.18164062 35.19726562 C2.20484375 36.2878125 2.22804688 37.37835937 2.25195312 38.50195312 C2.05664062 41.32226562 2.05664062 41.32226562 0.05664062 43.32226562 C-3.44335938 43.57226562 -3.44335938 43.57226562 -6.94335938 43.32226562 C-9.57521207 40.69041293 -9.19207799 38.78357694 -9.22125244 35.20080566 C-9.21720398 34.36432495 -9.21315552 33.52784424 -9.20898438 32.66601562 C-9.21089783 31.80794312 -9.21281128 30.94987061 -9.21478271 30.0657959 C-9.21614481 28.2500784 -9.21244665 26.43435118 -9.20410156 24.61865234 C-9.19340229 21.83343713 -9.20399591 19.04886694 -9.21679688 16.26367188 C-9.21547528 14.5019517 -9.2129129 12.74023192 -9.20898438 10.97851562 C-9.21303284 10.14203491 -9.2170813 9.3055542 -9.22125244 8.44372559 C-9.15701712 0.55529929 -7.19182752 0.05899337 0 0 Z M1.05664062 10.32226562 C1.05664062 13.29226563 1.05664062 16.26226563 1.05664062 19.32226562 C3.01467569 19.3761565 4.97312971 19.4150078 6.93164062 19.44726562 C8.0221875 19.47046875 9.11273437 19.49367188 10.23632812 19.51757812 C13.19374573 19.62287096 13.19374573 19.62287096 15.05664062 17.32226562 C15.38997396 14.82226562 15.38997396 14.82226562 15.05664062 12.32226562 C13.19374573 10.02166029 13.19374573 10.02166029 10.23632812 10.12695312 C9.14578125 10.15015625 8.05523438 10.17335938 6.93164062 10.19726562 C5.28808594 10.22433594 5.28808594 10.22433594 3.61132812 10.25195312 C2.76828125 10.27515625 1.92523437 10.29835938 1.05664062 10.32226562 Z " fill="#FFFFFF" transform="translate(2780.943359375,929.677734375)"/>
</svg>
