<svg width="21" height="20" viewBox="0 0 21 20" fill="none" xmlns="http://www.w3.org/2000/svg">
<path d="M17.814 16.2412L13.415 11.8422C14.1429 10.8227 14.5755 9.578 14.5755 8.2299C14.5756 4.7892 11.7863 2 8.34562 2C4.90492 2 2.11572 4.7892 2.11572 8.2299C2.11572 11.6706 4.90492 14.4598 8.34562 14.4598C9.69382 14.4598 10.9384 14.0271 11.9579 13.2993L16.3569 17.6983C16.5582 17.8996 16.8216 18 17.0854 18C17.3492 18 17.6127 17.8995 17.8139 17.6983C18.2163 17.2957 18.2163 16.6437 17.814 16.2412ZM4.01082 8.2299C4.01082 5.8359 5.95162 3.8951 8.34562 3.8951C10.7396 3.8951 12.6804 5.8358 12.6804 8.2299C12.6804 10.624 10.7396 12.5647 8.34562 12.5647C5.95162 12.5647 4.01082 10.6239 4.01082 8.2299Z" fill="#1B1A1B"/>
</svg>
